<svg width="2496" height="611" viewBox="0 0 2496 611" fill="none" xmlns="http://www.w3.org/2000/svg">
<mask id="path-1-inside-1_3353_1451" fill="white">
<path d="M275.064 446.138C278.5 444.867 282.175 447.862 280.623 451.18C278.502 455.713 274.586 458.556 267.993 459.02C265.239 459.201 261.535 459.507 260.021 461.267C254.268 467.987 245.397 469.51 238.915 474.828C237.153 476.284 235.089 478.211 232.927 477.138C225.811 473.644 222.461 477.901 219.697 483.17C218.596 485.228 217.83 486.454 214.994 486.398C211.266 486.339 207.939 489.439 203.745 489.022C201.765 488.787 199.764 489.24 198.079 490.307C196.394 491.374 195.128 492.988 194.494 494.879C193.825 496.446 192.866 497.874 191.669 499.088C190.109 500.675 188.379 502.048 185.73 501.236C181.119 499.817 177.173 499.705 174.539 505.181C173.228 507.908 169.483 507.092 166.717 507.091C163.952 507.09 163.861 508.413 163.624 511.13C162.859 520.188 158.856 523.952 150.078 524.782C148.775 524.908 147.12 523.719 145.959 522.638C144.797 521.557 144.966 518.932 142.539 520.752C131.632 528.945 119.376 534.735 107.358 540.999C95.3394 547.262 84.9467 556.06 73.5858 563.392C54.5978 575.643 36.1084 588.578 17.4143 601.233C12.647 604.239 7.42163 606.448 1.94374 607.773C1.4589 607.902 -0.11316 606.468 0.00647379 606.083C0.842578 602.277 1.69245 598.523 2.852 594.816C3.04857 594.289 3.3665 593.815 3.7801 593.434C4.03321 593.2 4.31786 593.005 4.62474 592.853C5.01374 592.661 5.45252 592.612 5.88356 592.563C12.2188 591.846 14.0057 586.437 17.2297 581.981C20.4266 577.281 24.5555 573.288 29.3601 570.249C31.8865 568.99 33.9903 567.02 35.4134 564.582C38.8404 556.592 45.7483 552.867 53.1482 550.216C59.3293 548.003 64.3377 545.362 66.7651 538.698C67.9748 536.151 69.8471 533.977 72.186 532.402C82.5083 524.588 92.8121 516.705 103.589 509.549C106.408 507.773 108.994 505.652 111.288 503.236C117.662 496.201 123.934 489.065 130.216 481.962C130.958 481.132 131.418 479.524 132.216 479.385C142.833 477.449 147.958 467.279 157.351 462.925C170.709 456.725 183.775 449.301 194.235 438.358C194.792 437.776 195.454 437.305 196.177 436.949C205.85 432.183 212.854 423.212 223.113 419.247C225.2 418.371 227.076 417.058 228.614 415.398C234.81 408.875 241.047 402.508 250.1 399.86C250.521 399.747 250.835 399.256 251.108 398.623C251.735 397.17 250.917 395.304 249.419 394.793C249.25 394.736 249.076 394.699 248.898 394.684C248.423 394.646 247.945 394.645 247.469 394.682C246.918 394.671 246.37 394.6 245.835 394.47C244.139 393.959 244.149 393.307 245.618 392.208C251.807 387.599 257.949 382.817 264.17 378.329C265.618 377.477 267.269 377.034 268.949 377.048C279.473 376.567 279.627 376.451 282.33 367.766C282.577 366.687 282.959 365.643 283.465 364.659C284.019 363.75 285.126 363.935 285.817 365.198C286.508 366.46 286.745 368.661 288.962 368.067C291.699 367.374 294.366 366.43 296.929 365.246C303.128 362.341 307.353 356.773 312.838 353.002C318.216 349.305 323.99 346.019 326.665 339.375C326.772 339.11 326.888 338.847 327.034 338.602C328.098 336.821 329.61 335.346 331.422 334.326C337.44 330.19 343.663 326.332 349.681 322.196C350.179 321.853 350.671 321.52 351.163 321.223C354.151 319.418 357.56 317.359 360.38 315.302C366.229 310.961 372.342 306.986 378.683 303.401C383.589 300.601 388.849 298.474 394.322 297.076C402.651 295.123 410.652 293.053 417.262 287.106C419.207 285.36 422.41 284.984 425.074 284.122C438.399 279.828 451.137 273.204 465.692 273.777C466.829 273.896 467.977 273.728 469.033 273.29C483.394 265.452 498.353 269.888 513.204 270.734C516.443 270.905 516.722 272.018 517.131 274.098C517.474 275.862 518.059 277.562 520.085 276.74C533.58 271.695 546.989 276.231 560.014 278.643C570.134 280.534 577.518 288.559 583.183 297.304C588.129 304.887 592.22 313.089 597.727 320.206C605.079 329.705 610.782 339.628 613.321 351.531C614.478 356.956 618.447 361.794 619.386 367.24C620.737 374.635 627.115 380.016 627.075 387.692C627.043 394.5 628.456 401.238 631.221 407.459C631.943 409.62 632.184 411.912 631.926 414.175C631.401 428.494 634.979 442.123 638.687 455.754C639.554 458.992 639.907 462.386 640.463 465.708C640.812 469.074 641.354 472.418 642.088 475.721C645.332 487.064 653.566 490.852 664.623 486.609C677.324 481.864 689.196 475.144 699.801 466.697C701.968 464.947 704.471 463.831 705.191 460.632C705.638 458.977 706.708 457.559 708.177 456.676C717.838 451.657 724.76 443.065 733.856 437.324C738.864 434.127 745.018 431.605 743.013 423.568C742.864 423.014 744.661 421.271 745.211 421.383C749.695 422.464 752.589 420.52 754.825 416.951C756.849 413.699 759.356 413.083 763.193 414.245C764.47 414.645 767.54 411.558 766.396 409.434C764.439 405.801 764.957 404.066 767.831 400.939C771.98 396.372 773.895 390.008 778.745 385.835C779.463 385.217 780.097 384.5 780.557 383.672C787.269 371.576 798.029 365.124 811.212 361.699C816.407 360.307 820.789 354.289 820.549 348.062C820.454 345.007 819.974 342.797 823.181 341.121C827.16 339.071 830.056 335.196 834.822 334.42C839.588 333.644 839.737 326.719 845.19 326.501C846.026 326.428 846.838 326.182 847.573 325.777C848.309 325.372 848.951 324.818 849.46 324.151C855.132 314.706 864.454 313.34 874.158 312.429C875.839 312.234 877.506 311.93 879.147 311.519C881.167 311.089 882.147 308.859 881.16 306.284C880.773 305.256 879.296 304.315 879.403 303.47C880.036 299.651 881.986 296.174 884.915 293.643C887.845 291.112 891.568 289.687 895.438 289.616C896.976 289.538 898.465 290.178 899.912 289.066C901.693 287.68 903.465 286.258 905.336 284.996C910.417 281.519 913.111 274.673 919.252 273.213C924.605 271.927 930.483 272.876 936.133 272.698C941.588 272.527 947.04 272.149 952.509 271.892C952.73 271.882 952.831 271.612 952.671 271.459C953.926 272.403 955.072 273.841 956.491 274.147C959.731 274.95 963.155 275.053 966.424 275.755C973.437 277.272 978.873 280.659 980.632 288.261C980.733 289.386 981.087 290.474 981.668 291.444C982.249 292.413 983.042 293.238 983.987 293.857C991.792 297.983 994.458 305.231 995.885 313.256C996.434 316.208 998.489 318.126 1000.52 320.179C1001.17 320.826 1001.94 320.999 1002.74 321.033C1005.74 321.16 1004.73 323.509 1003.48 326.239C1003.11 327.061 1002.93 328.034 1003.04 329.229C1003.37 333.167 1003.57 337.143 1001.41 340.802C999.558 343.933 1000.29 347.356 1000.37 350.768C1000.56 356.953 1000.69 363.173 1000.37 369.327C1000.02 375.917 997.017 382.381 1001.14 389.035C1002.28 390.881 1001.04 394.35 1000.59 397.015C998.935 406.922 997.383 416.784 999.504 426.85C1000.11 429.641 1000.1 432.529 999.49 435.317C995.266 452.799 998.322 470.298 999.671 487.66C1000.84 502.769 1005.52 517.458 1011.53 531.38C1014.33 537.852 1018.03 544.486 1025.24 547.9C1030.06 550.359 1035.46 551.476 1040.86 551.132C1046.27 550.788 1051.48 548.996 1055.95 545.944C1075.86 532.883 1093.35 516.466 1107.65 497.424C1111.11 492.913 1114.4 488.47 1119.23 485.262C1121.62 483.719 1123.6 481.636 1125.03 479.181C1131.79 466.809 1141.71 456.671 1149.06 444.663C1153.75 437.023 1160.1 430.458 1165.45 423.141C1169.21 418.216 1172.53 412.978 1175.4 407.485C1179.18 399.733 1186.93 395.115 1190.75 387.632C1194.35 380.619 1197.34 373.376 1202.92 367.372C1209.37 360.372 1214.1 352.052 1221.71 345.745C1226.28 342.015 1228.59 335.549 1231.36 330.019C1234.37 324.055 1235.69 317.205 1241.07 312.571C1241.86 311.754 1242.46 310.769 1242.82 309.689C1246.91 299.102 1253.64 289.735 1262.37 282.478C1266.48 278.999 1267.28 273.737 1268.99 269.047C1269.74 266.991 1270.58 263.315 1271.59 263.229C1278.86 262.637 1279.73 256.13 1283.22 252.057C1286.72 247.985 1290.76 243.599 1294.53 239.396C1296.45 237.268 1298.75 234.981 1298.3 232.057C1297.13 224.502 1302.71 220.834 1306.86 216.437C1310.53 212.132 1315.6 209.256 1321.18 208.313C1327.24 207.084 1333.05 204.899 1338.42 201.839C1353.82 193.683 1373.38 191.711 1390.98 195.328C1394.8 196.16 1399.02 195.828 1402.45 197.375C1405.03 198.54 1406.71 195.472 1408.44 197.069C1410 198.666 1411.36 200.455 1412.47 202.394C1413.98 204.716 1414.77 207.995 1416.87 209.399C1424.8 214.697 1428.39 223.016 1432.31 231.021C1435.29 237.071 1438.15 243.172 1440.92 249.278C1441.47 250.269 1441.86 251.341 1442.08 252.455C1442.6 256.938 1442.67 261.577 1443.49 265.942C1444.43 270.792 1448.3 274.488 1448.54 279.937C1448.73 284.208 1451.13 288.373 1452.28 292.65C1453.34 295.862 1453.97 299.202 1454.14 302.581C1454.05 310.68 1456.91 318.172 1458.93 325.721C1463.43 342.517 1468.88 359.059 1473.89 375.72C1478.59 391.422 1485.39 406.249 1492.3 421.043C1492.6 421.519 1492.99 421.928 1493.46 422.244C1493.92 422.559 1494.44 422.775 1494.99 422.877C1495.54 422.979 1496.11 422.965 1496.66 422.836C1497.2 422.707 1497.71 422.466 1498.16 422.127C1513.92 406.325 1522.65 394.725 1536.28 372.94C1544.08 360.494 1552.14 348.274 1558.74 335.148C1561.7 329.232 1567.15 324.562 1571.33 319.23C1573.59 316.73 1575.48 313.917 1576.94 310.878C1587.71 282.862 1593.56 271.162 1609.36 246.18C1617.76 232.793 1625.88 219.234 1633.72 205.503C1635.77 201.445 1638.58 197.824 1642 194.841C1645.37 192.175 1646.52 188.785 1648.03 185.133C1649.71 181.083 1651.37 176.815 1655.81 174.401C1660.25 171.987 1663.1 167.547 1665.07 162.639C1669.77 151.211 1678.41 143.143 1688.28 136.228C1691.96 133.665 1695.4 130.777 1699.16 128.322C1700.96 127.152 1703.34 125.773 1705.25 126.041C1711.46 126.919 1716.03 123.15 1721.23 121.219C1731.19 117.438 1740.97 111.755 1752.02 114.344C1758.47 115.862 1765.25 115.661 1771.54 118.707C1777.73 121.385 1784.15 123.491 1790.73 124.999C1793.67 125.788 1797.76 122.076 1799.83 126.124C1803.15 132.656 1812.36 134.197 1812.98 143.014C1813.21 146.276 1815.08 149.392 1816.02 152.629C1817.01 156.3 1816.35 160.781 1821.26 162.36C1821.82 162.546 1822.33 164.173 1822.16 164.997C1819.75 176.779 1821.31 188.311 1824.1 199.961C1826.23 208.67 1826.37 217.765 1828.69 226.57C1829.26 229.868 1830.52 233.009 1832.38 235.788C1833.31 236.869 1833.79 238.27 1833.71 239.694C1833.62 241.118 1832.99 242.455 1831.94 243.422C1831.23 244.297 1830.7 245.31 1830.39 246.398C1830.09 247.486 1830.01 248.625 1830.17 249.744C1830.68 256.528 1830.86 263.348 1831.65 270.096C1832.15 274.471 1835 279.128 1834.05 283.001C1832.98 287.389 1835.29 290.629 1835.27 294.478C1835.36 299.013 1835.77 303.537 1836.48 308.016C1836.6 308.858 1837.56 310.29 1838.07 310.264C1839.17 310.117 1840.19 309.575 1840.93 308.737C1845.52 303.721 1849.26 297.98 1851.98 291.744C1856.53 280.761 1862.77 270.555 1870.47 261.494C1873.75 257.619 1876.49 253.319 1878.63 248.712C1883.84 237.905 1891.92 229.077 1897.95 218.869C1903.67 209.115 1909.58 199.532 1916.07 190.278C1920.55 183.897 1924.01 176.773 1932.26 173.781C1936.04 172.418 1937.21 167.78 1938.87 164.234C1940.06 161.727 1940.03 158.005 1941.9 156.539C1949.26 150.853 1952.14 141.786 1958.34 135.264C1961.74 131.533 1965.53 128.172 1969.64 125.237C1975.66 121.083 1982.72 118.02 1987.73 113.153C1993.33 107.588 2001.43 108.091 2006.67 102.807C2007.42 101.94 2008.44 101.348 2009.56 101.123C2019.54 100.399 2027.51 94.7551 2036.18 90.7608C2038.22 89.7829 2040.53 89.5367 2042.73 90.0636C2050.56 92.6801 2057.43 92.0645 2065.44 88.8597C2074.21 85.3422 2084.48 86.3392 2094 87.9271C2108.5 90.216 2122.27 95.8863 2134.18 104.48C2136.02 105.522 2137.59 106.993 2138.75 108.765C2138.91 109.006 2139.04 109.263 2139.16 109.526C2142.46 117.074 2147.68 123.751 2149.08 132.203C2150.14 140.017 2151.8 147.737 2154.06 155.292C2157.23 164.655 2158.89 174.458 2159 184.338C2159 184.654 2158.97 184.969 2158.95 185.284C2158.93 185.519 2158.92 185.754 2158.93 185.989C2158.93 186.327 2159 186.661 2159.09 186.988C2160.97 194.03 2162.86 201.085 2164.76 208.154C2165.17 209.708 2164.91 211.347 2164.27 212.823C2161.11 220.139 2162.86 228.006 2163.4 235.433C2164.49 250.113 2163 265.081 2167.46 279.426C2167.74 280.315 2167.83 281.252 2167.73 282.178C2166.37 295.365 2171.34 307.676 2173.15 320.438C2174.83 332.05 2180.57 341.759 2186.62 351.237C2191.81 359.386 2197.7 360.2 2207.19 355.766C2223.25 348.269 2237.34 337.739 2250.31 325.949C2267.62 310.16 2284.38 293.721 2298.51 274.865C2298.8 274.474 2299.14 274.12 2299.52 273.806C2310.24 264.782 2317.24 252.536 2326.42 242.231C2355.5 209.572 2378.6 172.704 2401.3 135.665C2425.22 96.7398 2448.73 57.5736 2472.46 18.5515C2474.81 14.7114 2477.51 11.2393 2478.2 6.45316C2478.72 2.91784 2481.93 1.05484 2485.46 0.164924C2487.71 -0.438242 2490.56 0.653035 2490.78 2.78445C2490.96 6.74317 2491.89 10.632 2493.52 14.2444C2495.98 19.1515 2495.28 23.7944 2492.53 28.7066C2487.56 37.4609 2485.68 47.6158 2481.33 56.8555C2477.26 65.4991 2473.34 74.2707 2468.8 82.6874C2466.08 87.6016 2464.27 92.9659 2463.45 98.5231C2462.57 104.326 2454.98 105.414 2452.78 110.922C2449.34 119.833 2444.58 128.178 2438.66 135.676C2438.3 136.117 2438.04 136.63 2437.89 137.18C2434.82 149.529 2427.13 159.33 2420.49 169.83C2417.49 174.622 2414.89 179.663 2412.75 184.897C2409.04 193.665 2405.18 202.662 2397.64 209.137C2396.79 209.847 2395.58 210.82 2395.53 211.725C2394.9 221.694 2385.72 226.788 2382.45 234.883C2380.78 239.64 2377.31 243.55 2372.79 245.769C2370.74 246.713 2368.94 248.105 2367.5 249.841C2366.07 251.578 2365.04 253.615 2364.51 255.801C2362.17 263.944 2357.57 271.257 2351.25 276.892C2346.77 280.986 2343.57 286.466 2340.02 291.501C2336.25 296.796 2333.64 303.07 2328.2 306.961C2326.99 307.825 2326 308.975 2325.35 310.309C2322.66 315.803 2317.84 319.417 2313.09 323.084C2312.61 323.408 2312.21 323.819 2311.89 324.296C2302.94 339.053 2289.18 349.273 2277.2 361.076C2272.47 365.721 2268.04 371.271 2260.55 371.497C2258.21 371.567 2257.81 373.139 2257.26 374.548C2253.55 384.264 2246.62 389.777 2236.35 391.528C2233.58 391.989 2231 393.247 2228.93 395.149C2223.18 400.903 2216.5 400.094 2209.91 398.222C2203.32 396.35 2197.47 393.352 2190.62 392.032C2186.1 391.147 2182.58 385.984 2178.09 383.829C2174.62 382.178 2172.38 380.738 2172.69 376.627C2172.94 373.012 2171.14 370.455 2168.38 368.423C2168.12 368.234 2167.87 368.032 2167.64 367.815C2167.04 367.266 2166.42 366.747 2165.78 366.261C2165.51 366.062 2165.22 365.891 2164.93 365.742C2140.48 353.36 2134.41 329.403 2129.39 305.846C2125.54 288.403 2123.46 270.617 2123.17 252.758C2123.17 252.381 2123.12 252.004 2123.05 251.634C2117.72 225.176 2119.41 197.994 2114.96 171.447C2113.04 159.826 2110.61 148.282 2108.28 136.733C2107.67 134.564 2106.95 132.429 2106.12 130.334C2102.58 119.07 2094.96 115.228 2083.19 114.561C2059.41 113.173 2040.41 123.016 2022.72 136.924C2009.94 147.233 1998.45 159.036 1988.49 172.079C1978.97 184.189 1971.55 197.727 1961.61 209.471C1961.08 210.097 1960.68 210.821 1960.42 211.596C1956.22 223.746 1947.29 232.845 1939.57 242.681C1937.5 245.351 1935.1 248.24 1934.47 251.36C1933.03 257.798 1929.14 262.347 1924.94 266.905C1922.51 269.27 1920.98 272.41 1920.62 275.783C1920.44 278.314 1919.65 280.763 1918.32 282.926C1917 285.09 1915.17 286.904 1913 288.217C1908.98 290.707 1907.88 293.6 1910.31 297.96C1910.81 298.882 1909.81 301.377 1908.76 302.308C1894.67 314.882 1887.57 332.726 1875.24 346.552C1873.68 348.2 1872.76 350.357 1872.66 352.627C1873.2 359.793 1869.06 363.928 1864.42 368.437C1857.92 374.743 1852.2 381.828 1845.93 388.369C1841.66 392.854 1837.13 394.235 1830.8 390.976C1823.35 387.127 1815.1 384.769 1807.2 381.858C1805.6 381.295 1804.17 380.317 1803.07 379.024C1801.97 377.73 1801.24 376.169 1800.94 374.497C1797.25 359.84 1792.84 345.321 1789.88 330.525C1788.56 323.864 1786.39 317.503 1785.01 310.913C1779.84 286 1775.78 260.939 1775.29 235.422C1775.17 229.758 1775.29 224.046 1774.64 218.448C1773.99 212.849 1772.5 207.552 1771.45 202.116C1770.8 199.913 1770.43 197.635 1770.36 195.338C1771.26 181.512 1766.14 168.632 1764.51 155.166C1764.18 152.397 1761.03 150.754 1758.17 151.15C1755.37 151.61 1752.77 152.882 1750.68 154.807C1734.93 167.786 1721.36 183.208 1710.49 200.485C1705.39 208.584 1700.23 216.648 1695 224.679C1679.2 248.827 1665.78 274.23 1652.81 299.922C1647.47 310.483 1639.49 319.47 1635.25 330.608C1634.58 332.403 1631.78 333.393 1630.13 334.821C1626.32 338.347 1623.55 342.15 1623.35 347.92C1623.15 353.689 1619.96 358.796 1616.27 363.032C1609.42 370.992 1607.4 381.315 1602.13 390C1601.9 390.378 1602.88 391.749 1603.56 392.363C1604.03 392.708 1604.51 393.026 1605.02 393.314C1605.64 393.67 1605.92 394.939 1605.21 394.966C1603.23 395.027 1601.3 395.6 1599.61 396.629C1597.91 397.658 1596.52 399.108 1595.55 400.838C1592.1 406.25 1586.02 410.173 1584.97 417.004C1584.76 418.383 1584.33 419.744 1583.47 420.848C1580.14 425.164 1577.08 429.842 1573.14 433.568C1564.96 441.328 1556.35 448.665 1547.49 455.585C1540.74 460.634 1533.74 465.34 1526.51 469.688C1525.8 470.132 1525 470.41 1524.17 470.502C1523.54 470.571 1522.9 470.533 1522.29 470.389C1521.89 470.296 1521.53 470.104 1521.16 469.912C1516.58 467.481 1511.27 468.797 1506.77 467.128C1505.22 466.684 1503.65 466.356 1502.05 466.146L1484.21 462.584C1483.91 462.523 1483.61 462.439 1483.32 462.331C1467.38 456.385 1454.34 446.11 1442.46 434.288C1441.48 433.152 1440.6 431.943 1439.81 430.67C1439.59 430.312 1439.34 429.975 1439.07 429.653C1438.22 428.648 1437.51 427.538 1436.95 426.35C1436.8 426.036 1436.69 425.703 1436.61 425.366C1434.35 416.664 1428.05 409.878 1425.12 401.796C1422.89 395.603 1419 389.48 1418.96 382.81C1418.92 376.141 1416.55 369.888 1414.81 363.508C1414.52 362.434 1413.63 361.188 1413.96 360.339C1415.21 356.555 1415.5 352.516 1414.78 348.593C1414.2 344.702 1412.15 340.445 1413.17 337.093C1414.44 332.853 1411.73 329.59 1412.49 325.489C1413.25 321.389 1411.15 316.958 1410.08 312.698C1409.84 311.797 1410.02 308.315 1407.67 311.042C1406.11 312.851 1404.9 315.368 1404.28 311.282C1403.29 304.589 1403.99 297.646 1402.98 290.957C1402.31 286.533 1406.14 281.146 1402.98 278.447C1398.8 274.834 1399.8 270.299 1397.93 266.495C1395.51 261.574 1393.62 256.105 1387.03 254.568C1382.7 253.519 1381.33 249.302 1380.82 245.263C1380.28 239.636 1380.17 233.968 1379.72 228.318C1379.51 225.608 1377.66 224.804 1375.1 224.599C1367.23 223.979 1360.79 227.449 1354.73 231.708C1346.8 237.173 1339.62 243.658 1333.38 250.996C1322.88 263.535 1312.52 276.22 1301.88 288.666C1298.18 292.999 1296.43 298.368 1293.08 302.977C1283.51 316.157 1272.84 328.687 1266.11 343.776C1265.3 345.863 1264.08 347.772 1262.54 349.393C1252.49 358.655 1246.59 370.704 1240.25 382.386C1238.71 385.212 1237.25 386.902 1234.15 387.307C1233.33 387.467 1232.57 387.828 1231.93 388.356C1231.43 388.773 1231.01 389.285 1230.7 389.861C1230.54 390.165 1230.39 390.476 1230.21 390.768C1225.8 397.756 1220.56 404.283 1218.37 412.523C1216.63 419.171 1211.18 423.989 1208.49 430.018C1206.46 434.683 1200.91 437.616 1201.39 443.057C1201.93 448.944 1196.11 449.873 1194.01 453.756C1191.63 458.106 1188.16 461.986 1186.37 466.791C1185.73 468.383 1184.65 469.756 1183.25 470.744C1172.26 478.2 1167.63 491.279 1157.76 499.734C1157.15 500.312 1156.67 501.015 1156.36 501.794C1156.04 502.574 1155.89 503.412 1155.93 504.252C1156.63 509.076 1154.99 511.817 1150.12 512.712C1145.88 513.514 1143.41 516.625 1141.18 520.007C1138.95 523.388 1136.69 526.501 1134.52 529.772C1133.08 532.014 1131.29 532.066 1128.81 531.542C1127.66 531.314 1124.93 532.973 1124.91 533.795C1124.76 542.577 1117.55 545.66 1112.16 550.203C1110.87 551.291 1109.45 552.21 1108.24 553.37C1105.99 555.53 1107.04 558.83 1110.65 561.187C1110.69 561.218 1110.74 561.25 1110.79 561.282C1112.11 562.166 1112.71 564.857 1111.14 565.101C1108.38 565.543 1105.62 565.281 1103.14 567.245C1097.23 572.128 1092.22 578.208 1084.19 579.806C1083.73 579.899 1083.25 580.006 1082.86 580.281C1082.62 580.45 1082.41 580.652 1082.22 580.88C1082.02 581.122 1081.86 581.389 1081.74 581.673C1081.57 582.082 1081.55 582.535 1081.54 582.978C1081.38 589.999 1075.88 591.743 1070.68 593.425C1067.13 594.58 1064.1 595.188 1067.11 599.707C1067.36 600.103 1067.31 601.156 1067.04 601.339C1063.03 603.955 1060.2 609.095 1054.25 607.681C1051.57 607.044 1048.91 605.401 1046.29 607.607C1040.73 612.231 1035.01 610.627 1028.85 608.809C1021.85 606.731 1014.56 605.827 1010.49 598.49C1009.3 596.323 1006.55 596.391 1004.32 596.841C999.147 597.911 995.58 595.749 992.763 591.679C989.26 586.641 986.292 581.034 979.826 578.999C979.571 578.882 979.346 578.709 979.166 578.494C978.987 578.279 978.857 578.027 978.788 577.755C978.389 575.53 979.014 572.132 976.966 571.488C974.528 570.721 971.622 571.154 970.035 569.15C967.335 565.739 965.399 561.881 965.961 557.659C966.644 552.521 964.676 548.984 962.777 544.946C961.017 541.428 959.525 537.783 958.315 534.041C957.203 530.267 956.51 526.382 956.25 522.457C956.22 520.43 956.255 518.404 956.355 516.38C956.506 513.329 953.684 510.405 953.57 507.353C953.515 505.863 953.854 504.212 953.442 502.905C952.249 499.15 951.561 495.253 951.395 491.316C951.352 487.378 951.756 483.447 952.598 479.599C953.068 476.816 952.758 473.957 951.703 471.339C951.028 469.783 950.801 468.07 951.045 466.393C955.343 449.948 952.217 432.673 957.229 416.26C958.035 413.52 957.903 410.59 956.854 407.934C951.675 393.733 952.362 378.98 954.497 364.507C955.77 355.406 955.229 346.457 954.822 337.528C954.668 333.75 952.634 330.05 950.89 326.338C950.067 324.584 948.531 323.102 946.595 323.181C942.459 323.351 939.13 325.997 935.78 328.247C928.755 332.988 921.996 338.102 915.06 342.967C910.762 345.975 909.298 351.248 905.75 354.63C902.575 357.671 897.995 359.139 894.382 361.796C891.619 363.796 889.193 366.225 887.198 368.992C883.68 373.94 877.796 376.949 875.472 382.842C874.974 384.106 874.293 385.336 873.131 386.039C868.601 388.78 862.912 389.701 859.865 394.912C859.083 396.12 858.003 397.106 856.728 397.773C855.453 398.439 854.027 398.765 852.589 398.717C844.808 398.631 841.62 403.772 839.897 410.154C838.477 415.453 836.548 419.681 830.213 420.284C828.876 420.419 827.586 422.046 826.435 423.152C817.577 431.65 807.723 439.134 800.223 449.031C799.717 449.672 799.081 450.199 798.358 450.578C797.635 450.958 796.84 451.181 796.025 451.233C788.919 450.687 784.882 456.26 779.59 459.163C778.894 459.549 778.29 460.084 777.822 460.729C777.48 461.199 777.217 461.719 777.04 462.269C776.908 462.679 776.889 463.113 776.88 463.543C776.744 470.084 772.206 472.554 767.004 475.081C762.476 477.296 758.703 481.017 754.17 483.215C749.709 485.378 750.081 491.225 745.836 493.206C745.698 493.27 745.551 493.319 745.403 493.354C745.372 493.361 745.34 493.368 745.309 493.375C743.778 493.715 742.462 492.381 742.565 490.816C742.599 490.25 742.948 489.266 742.843 489.22C741.912 488.817 740.928 488.549 739.92 488.425C739.642 488.416 739.367 488.477 739.118 488.602C739.03 488.646 738.946 488.698 738.868 488.757C738.583 488.97 738.423 489.308 738.268 489.628C732.732 501.061 720.419 503.769 711.218 510.481C710.527 510.911 709.746 511.179 708.937 511.264C708.274 511.334 707.606 511.28 706.966 511.106C706.681 511.029 706.396 510.937 706.103 510.899C702.812 510.475 701.226 513.108 700.48 515.566C698.759 521.335 698.227 517.618 696.22 515.669C693.695 513.172 689.787 514.033 686.541 514.179C684.19 514.271 684.715 516.227 685.176 517.811C685.849 520.322 683.89 520.42 682.404 520.763C680.013 521.295 677.69 519.759 675.317 519.396C672.869 519.022 669.97 519.101 667.499 518.927C666.095 518.829 664.693 519.141 663.464 519.824C655.307 524.014 647.757 521.398 641.505 516.28C639.888 514.741 637.954 513.574 635.839 512.858C633.725 512.143 631.479 511.897 629.26 512.138C627.306 512.368 625.338 512.468 623.371 512.436C622.784 512.426 622.172 512.354 621.71 511.991C621.612 511.914 621.519 511.829 621.432 511.738C621.14 511.432 620.925 511.06 620.807 510.654C620.396 508.425 620.184 510.821 621.982 509.634C624.317 508.099 625.5 506.278 623.809 504.263C621.037 500.965 617.989 498.076 617.158 493.589C617.071 493.121 616.977 492.646 616.74 492.232C616.465 491.749 616.104 491.318 615.674 490.961C615.263 490.619 614.799 490.352 614.301 490.169C613.807 489.987 613.268 489.995 612.742 489.986C606.384 489.874 603.89 482.031 597.382 482.17C596.125 482.191 594.39 480.355 593.605 478.95C588.323 469.694 581.272 461.32 579.154 450.437C578.836 448.217 578.188 446.058 577.233 444.029C569.403 429.424 566.723 413.049 563.867 397.056C560.342 376.973 554.216 357.643 549.28 337.976C547.243 329.891 543.012 322.34 539.494 314.615C538.464 312.614 537.019 310.857 535.255 309.46C527.423 302.742 514.078 301.215 505.06 306.415C495.441 312.073 485.993 318.372 476.467 324.377C469.337 328.867 462.424 333.818 454.962 337.692C446.814 341.917 439.193 346.65 433.262 353.677C429.412 358.216 424.812 360.303 418.911 361.624C411.915 363.22 405.022 365.754 399.939 371.718C397.823 374.141 394.335 375.391 391.482 377.214C389.125 378.736 386.719 380.216 384.477 381.893C379.346 385.736 378.409 393.875 369.734 394.399C363.048 394.799 358.041 401.114 350.871 401.439C348.647 401.814 346.553 402.745 344.785 404.146C338.236 408.518 330.876 410.694 323.348 412.452C318.111 413.688 315.543 416.64 315.843 422.053C315.906 423.187 315.616 424.323 315.679 425.456C315.819 426.895 315.424 428.335 314.568 429.499C313.712 430.664 312.456 431.471 311.041 431.766C304.415 432.8 298.196 435.622 293.054 439.926C292.169 440.67 290.883 440.933 289.476 441.052C287.193 441.245 284.689 437.676 282.476 438.269C279.462 439.336 276.575 440.732 273.867 442.432C273.221 442.79 272.849 444.245 272.943 445.148C273.089 446.593 273.961 446.731 275.064 446.138Z"/>
<path d="M952.754 271.726C952.831 271.799 952.958 271.735 952.943 271.629C952.659 269.519 952.491 267.395 952.44 265.267C952.473 263.609 955.212 263.586 956.398 264.744C956.85 265.185 957.284 265.645 957.699 266.122C958.673 267.477 958.971 269.362 957.449 270.449C957.346 270.523 957.232 270.579 957.113 270.623C955.737 271.137 954.292 271.442 952.827 271.53C952.728 271.536 952.682 271.657 952.754 271.726Z"/>
</mask>
<path d="M275.064 446.138C278.5 444.867 282.175 447.862 280.623 451.18C278.502 455.713 274.586 458.556 267.993 459.02C265.239 459.201 261.535 459.507 260.021 461.267C254.268 467.987 245.397 469.51 238.915 474.828C237.153 476.284 235.089 478.211 232.927 477.138C225.811 473.644 222.461 477.901 219.697 483.17C218.596 485.228 217.83 486.454 214.994 486.398C211.266 486.339 207.939 489.439 203.745 489.022C201.765 488.787 199.764 489.24 198.079 490.307C196.394 491.374 195.128 492.988 194.494 494.879C193.825 496.446 192.866 497.874 191.669 499.088C190.109 500.675 188.379 502.048 185.73 501.236C181.119 499.817 177.173 499.705 174.539 505.181C173.228 507.908 169.483 507.092 166.717 507.091C163.952 507.09 163.861 508.413 163.624 511.13C162.859 520.188 158.856 523.952 150.078 524.782C148.775 524.908 147.12 523.719 145.959 522.638C144.797 521.557 144.966 518.932 142.539 520.752C131.632 528.945 119.376 534.735 107.358 540.999C95.3394 547.262 84.9467 556.06 73.5858 563.392C54.5978 575.643 36.1084 588.578 17.4143 601.233C12.647 604.239 7.42163 606.448 1.94374 607.773C1.4589 607.902 -0.11316 606.468 0.00647379 606.083C0.842578 602.277 1.69245 598.523 2.852 594.816C3.04857 594.289 3.3665 593.815 3.7801 593.434C4.03321 593.2 4.31786 593.005 4.62474 592.853C5.01374 592.661 5.45252 592.612 5.88356 592.563C12.2188 591.846 14.0057 586.437 17.2297 581.981C20.4266 577.281 24.5555 573.288 29.3601 570.249C31.8865 568.99 33.9903 567.02 35.4134 564.582C38.8404 556.592 45.7483 552.867 53.1482 550.216C59.3293 548.003 64.3377 545.362 66.7651 538.698C67.9748 536.151 69.8471 533.977 72.186 532.402C82.5083 524.588 92.8121 516.705 103.589 509.549C106.408 507.773 108.994 505.652 111.288 503.236C117.662 496.201 123.934 489.065 130.216 481.962C130.958 481.132 131.418 479.524 132.216 479.385C142.833 477.449 147.958 467.279 157.351 462.925C170.709 456.725 183.775 449.301 194.235 438.358C194.792 437.776 195.454 437.305 196.177 436.949C205.85 432.183 212.854 423.212 223.113 419.247C225.2 418.371 227.076 417.058 228.614 415.398C234.81 408.875 241.047 402.508 250.1 399.86C250.521 399.747 250.835 399.256 251.108 398.623C251.735 397.17 250.917 395.304 249.419 394.793C249.25 394.736 249.076 394.699 248.898 394.684C248.423 394.646 247.945 394.645 247.469 394.682C246.918 394.671 246.37 394.6 245.835 394.47C244.139 393.959 244.149 393.307 245.618 392.208C251.807 387.599 257.949 382.817 264.17 378.329C265.618 377.477 267.269 377.034 268.949 377.048C279.473 376.567 279.627 376.451 282.33 367.766C282.577 366.687 282.959 365.643 283.465 364.659C284.019 363.75 285.126 363.935 285.817 365.198C286.508 366.46 286.745 368.661 288.962 368.067C291.699 367.374 294.366 366.43 296.929 365.246C303.128 362.341 307.353 356.773 312.838 353.002C318.216 349.305 323.99 346.019 326.665 339.375C326.772 339.11 326.888 338.847 327.034 338.602C328.098 336.821 329.61 335.346 331.422 334.326C337.44 330.19 343.663 326.332 349.681 322.196C350.179 321.853 350.671 321.52 351.163 321.223C354.151 319.418 357.56 317.359 360.38 315.302C366.229 310.961 372.342 306.986 378.683 303.401C383.589 300.601 388.849 298.474 394.322 297.076C402.651 295.123 410.652 293.053 417.262 287.106C419.207 285.36 422.41 284.984 425.074 284.122C438.399 279.828 451.137 273.204 465.692 273.777C466.829 273.896 467.977 273.728 469.033 273.29C483.394 265.452 498.353 269.888 513.204 270.734C516.443 270.905 516.722 272.018 517.131 274.098C517.474 275.862 518.059 277.562 520.085 276.74C533.58 271.695 546.989 276.231 560.014 278.643C570.134 280.534 577.518 288.559 583.183 297.304C588.129 304.887 592.22 313.089 597.727 320.206C605.079 329.705 610.782 339.628 613.321 351.531C614.478 356.956 618.447 361.794 619.386 367.24C620.737 374.635 627.115 380.016 627.075 387.692C627.043 394.5 628.456 401.238 631.221 407.459C631.943 409.62 632.184 411.912 631.926 414.175C631.401 428.494 634.979 442.123 638.687 455.754C639.554 458.992 639.907 462.386 640.463 465.708C640.812 469.074 641.354 472.418 642.088 475.721C645.332 487.064 653.566 490.852 664.623 486.609C677.324 481.864 689.196 475.144 699.801 466.697C701.968 464.947 704.471 463.831 705.191 460.632C705.638 458.977 706.708 457.559 708.177 456.676C717.838 451.657 724.76 443.065 733.856 437.324C738.864 434.127 745.018 431.605 743.013 423.568C742.864 423.014 744.661 421.271 745.211 421.383C749.695 422.464 752.589 420.52 754.825 416.951C756.849 413.699 759.356 413.083 763.193 414.245C764.47 414.645 767.54 411.558 766.396 409.434C764.439 405.801 764.957 404.066 767.831 400.939C771.98 396.372 773.895 390.008 778.745 385.835C779.463 385.217 780.097 384.5 780.557 383.672C787.269 371.576 798.029 365.124 811.212 361.699C816.407 360.307 820.789 354.289 820.549 348.062C820.454 345.007 819.974 342.797 823.181 341.121C827.16 339.071 830.056 335.196 834.822 334.42C839.588 333.644 839.737 326.719 845.19 326.501C846.026 326.428 846.838 326.182 847.573 325.777C848.309 325.372 848.951 324.818 849.46 324.151C855.132 314.706 864.454 313.34 874.158 312.429C875.839 312.234 877.506 311.93 879.147 311.519C881.167 311.089 882.147 308.859 881.16 306.284C880.773 305.256 879.296 304.315 879.403 303.47C880.036 299.651 881.986 296.174 884.915 293.643C887.845 291.112 891.568 289.687 895.438 289.616C896.976 289.538 898.465 290.178 899.912 289.066C901.693 287.68 903.465 286.258 905.336 284.996C910.417 281.519 913.111 274.673 919.252 273.213C924.605 271.927 930.483 272.876 936.133 272.698C941.588 272.527 947.04 272.149 952.509 271.892C952.73 271.882 952.831 271.612 952.671 271.459C953.926 272.403 955.072 273.841 956.491 274.147C959.731 274.95 963.155 275.053 966.424 275.755C973.437 277.272 978.873 280.659 980.632 288.261C980.733 289.386 981.087 290.474 981.668 291.444C982.249 292.413 983.042 293.238 983.987 293.857C991.792 297.983 994.458 305.231 995.885 313.256C996.434 316.208 998.489 318.126 1000.52 320.179C1001.17 320.826 1001.94 320.999 1002.74 321.033C1005.74 321.16 1004.73 323.509 1003.48 326.239C1003.11 327.061 1002.93 328.034 1003.04 329.229C1003.37 333.167 1003.57 337.143 1001.41 340.802C999.558 343.933 1000.29 347.356 1000.37 350.768C1000.56 356.953 1000.69 363.173 1000.37 369.327C1000.02 375.917 997.017 382.381 1001.14 389.035C1002.28 390.881 1001.04 394.35 1000.59 397.015C998.935 406.922 997.383 416.784 999.504 426.85C1000.11 429.641 1000.1 432.529 999.49 435.317C995.266 452.799 998.322 470.298 999.671 487.66C1000.84 502.769 1005.52 517.458 1011.53 531.38C1014.33 537.852 1018.03 544.486 1025.24 547.9C1030.06 550.359 1035.46 551.476 1040.86 551.132C1046.27 550.788 1051.48 548.996 1055.95 545.944C1075.86 532.883 1093.35 516.466 1107.65 497.424C1111.11 492.913 1114.4 488.47 1119.23 485.262C1121.62 483.719 1123.6 481.636 1125.03 479.181C1131.79 466.809 1141.71 456.671 1149.06 444.663C1153.75 437.023 1160.1 430.458 1165.45 423.141C1169.21 418.216 1172.53 412.978 1175.4 407.485C1179.18 399.733 1186.93 395.115 1190.75 387.632C1194.35 380.619 1197.34 373.376 1202.92 367.372C1209.37 360.372 1214.1 352.052 1221.71 345.745C1226.28 342.015 1228.59 335.549 1231.36 330.019C1234.37 324.055 1235.69 317.205 1241.07 312.571C1241.86 311.754 1242.46 310.769 1242.82 309.689C1246.91 299.102 1253.64 289.735 1262.37 282.478C1266.48 278.999 1267.28 273.737 1268.99 269.047C1269.74 266.991 1270.58 263.315 1271.59 263.229C1278.86 262.637 1279.73 256.13 1283.22 252.057C1286.72 247.985 1290.76 243.599 1294.53 239.396C1296.45 237.268 1298.75 234.981 1298.3 232.057C1297.13 224.502 1302.71 220.834 1306.86 216.437C1310.53 212.132 1315.6 209.256 1321.18 208.313C1327.24 207.084 1333.05 204.899 1338.42 201.839C1353.82 193.683 1373.38 191.711 1390.98 195.328C1394.8 196.16 1399.02 195.828 1402.45 197.375C1405.03 198.54 1406.71 195.472 1408.44 197.069C1410 198.666 1411.36 200.455 1412.47 202.394C1413.98 204.716 1414.77 207.995 1416.87 209.399C1424.8 214.697 1428.39 223.016 1432.31 231.021C1435.29 237.071 1438.15 243.172 1440.92 249.278C1441.47 250.269 1441.86 251.341 1442.08 252.455C1442.6 256.938 1442.67 261.577 1443.49 265.942C1444.43 270.792 1448.3 274.488 1448.54 279.937C1448.73 284.208 1451.13 288.373 1452.28 292.65C1453.34 295.862 1453.97 299.202 1454.14 302.581C1454.05 310.68 1456.91 318.172 1458.93 325.721C1463.43 342.517 1468.88 359.059 1473.89 375.72C1478.59 391.422 1485.39 406.249 1492.3 421.043C1492.6 421.519 1492.99 421.928 1493.46 422.244C1493.92 422.559 1494.44 422.775 1494.99 422.877C1495.54 422.979 1496.11 422.965 1496.66 422.836C1497.2 422.707 1497.71 422.466 1498.16 422.127C1513.92 406.325 1522.65 394.725 1536.28 372.94C1544.08 360.494 1552.14 348.274 1558.74 335.148C1561.7 329.232 1567.15 324.562 1571.33 319.23C1573.59 316.73 1575.48 313.917 1576.94 310.878C1587.71 282.862 1593.56 271.162 1609.36 246.18C1617.76 232.793 1625.88 219.234 1633.72 205.503C1635.77 201.445 1638.58 197.824 1642 194.841C1645.37 192.175 1646.52 188.785 1648.03 185.133C1649.71 181.083 1651.37 176.815 1655.81 174.401C1660.25 171.987 1663.1 167.547 1665.07 162.639C1669.77 151.211 1678.41 143.143 1688.28 136.228C1691.96 133.665 1695.4 130.777 1699.16 128.322C1700.96 127.152 1703.34 125.773 1705.25 126.041C1711.46 126.919 1716.03 123.15 1721.23 121.219C1731.19 117.438 1740.97 111.755 1752.02 114.344C1758.47 115.862 1765.25 115.661 1771.54 118.707C1777.73 121.385 1784.15 123.491 1790.73 124.999C1793.67 125.788 1797.76 122.076 1799.83 126.124C1803.15 132.656 1812.36 134.197 1812.98 143.014C1813.21 146.276 1815.08 149.392 1816.02 152.629C1817.01 156.3 1816.35 160.781 1821.26 162.36C1821.82 162.546 1822.33 164.173 1822.16 164.997C1819.75 176.779 1821.31 188.311 1824.1 199.961C1826.23 208.67 1826.37 217.765 1828.69 226.57C1829.26 229.868 1830.52 233.009 1832.38 235.788C1833.31 236.869 1833.79 238.27 1833.71 239.694C1833.62 241.118 1832.99 242.455 1831.94 243.422C1831.23 244.297 1830.7 245.31 1830.39 246.398C1830.09 247.486 1830.01 248.625 1830.17 249.744C1830.68 256.528 1830.86 263.348 1831.65 270.096C1832.15 274.471 1835 279.128 1834.05 283.001C1832.98 287.389 1835.29 290.629 1835.27 294.478C1835.36 299.013 1835.77 303.537 1836.48 308.016C1836.6 308.858 1837.56 310.29 1838.07 310.264C1839.17 310.117 1840.19 309.575 1840.93 308.737C1845.52 303.721 1849.26 297.98 1851.98 291.744C1856.53 280.761 1862.77 270.555 1870.47 261.494C1873.75 257.619 1876.49 253.319 1878.63 248.712C1883.84 237.905 1891.92 229.077 1897.95 218.869C1903.67 209.115 1909.58 199.532 1916.07 190.278C1920.55 183.897 1924.01 176.773 1932.26 173.781C1936.04 172.418 1937.21 167.78 1938.87 164.234C1940.06 161.727 1940.03 158.005 1941.9 156.539C1949.26 150.853 1952.14 141.786 1958.34 135.264C1961.74 131.533 1965.53 128.172 1969.64 125.237C1975.66 121.083 1982.72 118.02 1987.73 113.153C1993.33 107.588 2001.43 108.091 2006.67 102.807C2007.42 101.94 2008.44 101.348 2009.56 101.123C2019.54 100.399 2027.51 94.7551 2036.18 90.7608C2038.22 89.7829 2040.53 89.5367 2042.73 90.0636C2050.56 92.6801 2057.43 92.0645 2065.44 88.8597C2074.21 85.3422 2084.48 86.3392 2094 87.9271C2108.5 90.216 2122.27 95.8863 2134.18 104.48C2136.02 105.522 2137.59 106.993 2138.75 108.765C2138.91 109.006 2139.04 109.263 2139.16 109.526C2142.46 117.074 2147.68 123.751 2149.08 132.203C2150.14 140.017 2151.8 147.737 2154.06 155.292C2157.23 164.655 2158.89 174.458 2159 184.338C2159 184.654 2158.97 184.969 2158.95 185.284C2158.93 185.519 2158.92 185.754 2158.93 185.989C2158.93 186.327 2159 186.661 2159.09 186.988C2160.97 194.03 2162.86 201.085 2164.76 208.154C2165.17 209.708 2164.91 211.347 2164.27 212.823C2161.11 220.139 2162.86 228.006 2163.4 235.433C2164.49 250.113 2163 265.081 2167.46 279.426C2167.74 280.315 2167.83 281.252 2167.73 282.178C2166.37 295.365 2171.34 307.676 2173.15 320.438C2174.83 332.05 2180.57 341.759 2186.62 351.237C2191.81 359.386 2197.7 360.2 2207.19 355.766C2223.25 348.269 2237.34 337.739 2250.31 325.949C2267.62 310.16 2284.38 293.721 2298.51 274.865C2298.8 274.474 2299.14 274.12 2299.52 273.806C2310.24 264.782 2317.24 252.536 2326.42 242.231C2355.5 209.572 2378.6 172.704 2401.3 135.665C2425.22 96.7398 2448.73 57.5736 2472.46 18.5515C2474.81 14.7114 2477.51 11.2393 2478.2 6.45316C2478.72 2.91784 2481.93 1.05484 2485.46 0.164924C2487.71 -0.438242 2490.56 0.653035 2490.78 2.78445C2490.96 6.74317 2491.89 10.632 2493.52 14.2444C2495.98 19.1515 2495.28 23.7944 2492.53 28.7066C2487.56 37.4609 2485.68 47.6158 2481.33 56.8555C2477.26 65.4991 2473.34 74.2707 2468.8 82.6874C2466.08 87.6016 2464.27 92.9659 2463.45 98.5231C2462.57 104.326 2454.98 105.414 2452.78 110.922C2449.34 119.833 2444.58 128.178 2438.66 135.676C2438.3 136.117 2438.04 136.63 2437.89 137.18C2434.82 149.529 2427.13 159.33 2420.49 169.83C2417.49 174.622 2414.89 179.663 2412.75 184.897C2409.04 193.665 2405.18 202.662 2397.64 209.137C2396.79 209.847 2395.58 210.82 2395.53 211.725C2394.9 221.694 2385.72 226.788 2382.45 234.883C2380.78 239.64 2377.31 243.55 2372.79 245.769C2370.74 246.713 2368.94 248.105 2367.5 249.841C2366.07 251.578 2365.04 253.615 2364.51 255.801C2362.17 263.944 2357.57 271.257 2351.25 276.892C2346.77 280.986 2343.57 286.466 2340.02 291.501C2336.25 296.796 2333.64 303.07 2328.2 306.961C2326.99 307.825 2326 308.975 2325.35 310.309C2322.66 315.803 2317.84 319.417 2313.09 323.084C2312.61 323.408 2312.21 323.819 2311.89 324.296C2302.94 339.053 2289.18 349.273 2277.2 361.076C2272.47 365.721 2268.04 371.271 2260.55 371.497C2258.21 371.567 2257.81 373.139 2257.26 374.548C2253.55 384.264 2246.62 389.777 2236.35 391.528C2233.58 391.989 2231 393.247 2228.93 395.149C2223.18 400.903 2216.5 400.094 2209.91 398.222C2203.32 396.35 2197.47 393.352 2190.62 392.032C2186.1 391.147 2182.58 385.984 2178.09 383.829C2174.62 382.178 2172.38 380.738 2172.69 376.627C2172.94 373.012 2171.14 370.455 2168.38 368.423C2168.12 368.234 2167.87 368.032 2167.64 367.815C2167.04 367.266 2166.42 366.747 2165.78 366.261C2165.51 366.062 2165.22 365.891 2164.93 365.742C2140.48 353.36 2134.41 329.403 2129.39 305.846C2125.54 288.403 2123.46 270.617 2123.17 252.758C2123.17 252.381 2123.12 252.004 2123.05 251.634C2117.72 225.176 2119.41 197.994 2114.96 171.447C2113.04 159.826 2110.61 148.282 2108.28 136.733C2107.67 134.564 2106.95 132.429 2106.12 130.334C2102.58 119.07 2094.96 115.228 2083.19 114.561C2059.41 113.173 2040.41 123.016 2022.72 136.924C2009.94 147.233 1998.45 159.036 1988.49 172.079C1978.97 184.189 1971.55 197.727 1961.61 209.471C1961.08 210.097 1960.68 210.821 1960.42 211.596C1956.22 223.746 1947.29 232.845 1939.57 242.681C1937.5 245.351 1935.1 248.24 1934.47 251.36C1933.03 257.798 1929.14 262.347 1924.94 266.905C1922.51 269.27 1920.98 272.41 1920.62 275.783C1920.44 278.314 1919.65 280.763 1918.32 282.926C1917 285.09 1915.17 286.904 1913 288.217C1908.98 290.707 1907.88 293.6 1910.31 297.96C1910.81 298.882 1909.81 301.377 1908.76 302.308C1894.67 314.882 1887.57 332.726 1875.24 346.552C1873.68 348.2 1872.76 350.357 1872.66 352.627C1873.2 359.793 1869.06 363.928 1864.42 368.437C1857.92 374.743 1852.2 381.828 1845.93 388.369C1841.66 392.854 1837.13 394.235 1830.8 390.976C1823.35 387.127 1815.1 384.769 1807.2 381.858C1805.6 381.295 1804.17 380.317 1803.07 379.024C1801.97 377.73 1801.24 376.169 1800.94 374.497C1797.25 359.84 1792.84 345.321 1789.88 330.525C1788.56 323.864 1786.39 317.503 1785.01 310.913C1779.84 286 1775.78 260.939 1775.29 235.422C1775.17 229.758 1775.29 224.046 1774.64 218.448C1773.99 212.849 1772.5 207.552 1771.45 202.116C1770.8 199.913 1770.43 197.635 1770.36 195.338C1771.26 181.512 1766.14 168.632 1764.51 155.166C1764.18 152.397 1761.03 150.754 1758.17 151.15C1755.37 151.61 1752.77 152.882 1750.68 154.807C1734.93 167.786 1721.36 183.208 1710.49 200.485C1705.39 208.584 1700.23 216.648 1695 224.679C1679.2 248.827 1665.78 274.23 1652.81 299.922C1647.47 310.483 1639.49 319.47 1635.25 330.608C1634.58 332.403 1631.78 333.393 1630.13 334.821C1626.32 338.347 1623.55 342.15 1623.35 347.92C1623.15 353.689 1619.96 358.796 1616.27 363.032C1609.42 370.992 1607.4 381.315 1602.13 390C1601.9 390.378 1602.88 391.749 1603.56 392.363C1604.03 392.708 1604.51 393.026 1605.02 393.314C1605.64 393.67 1605.92 394.939 1605.21 394.966C1603.23 395.027 1601.3 395.6 1599.61 396.629C1597.91 397.658 1596.52 399.108 1595.55 400.838C1592.1 406.25 1586.02 410.173 1584.97 417.004C1584.76 418.383 1584.33 419.744 1583.47 420.848C1580.14 425.164 1577.08 429.842 1573.14 433.568C1564.96 441.328 1556.35 448.665 1547.49 455.585C1540.74 460.634 1533.74 465.34 1526.51 469.688C1525.8 470.132 1525 470.41 1524.17 470.502C1523.54 470.571 1522.9 470.533 1522.29 470.389C1521.89 470.296 1521.53 470.104 1521.16 469.912C1516.58 467.481 1511.27 468.797 1506.77 467.128C1505.22 466.684 1503.65 466.356 1502.05 466.146L1484.21 462.584C1483.91 462.523 1483.61 462.439 1483.32 462.331C1467.38 456.385 1454.34 446.11 1442.46 434.288C1441.48 433.152 1440.6 431.943 1439.81 430.67C1439.59 430.312 1439.34 429.975 1439.07 429.653C1438.22 428.648 1437.51 427.538 1436.95 426.35C1436.8 426.036 1436.69 425.703 1436.61 425.366C1434.35 416.664 1428.05 409.878 1425.12 401.796C1422.89 395.603 1419 389.48 1418.96 382.81C1418.92 376.141 1416.55 369.888 1414.81 363.508C1414.52 362.434 1413.63 361.188 1413.96 360.339C1415.21 356.555 1415.5 352.516 1414.78 348.593C1414.2 344.702 1412.15 340.445 1413.17 337.093C1414.44 332.853 1411.73 329.59 1412.49 325.489C1413.25 321.389 1411.15 316.958 1410.08 312.698C1409.84 311.797 1410.02 308.315 1407.67 311.042C1406.11 312.851 1404.9 315.368 1404.28 311.282C1403.29 304.589 1403.99 297.646 1402.98 290.957C1402.31 286.533 1406.14 281.146 1402.98 278.447C1398.8 274.834 1399.8 270.299 1397.93 266.495C1395.51 261.574 1393.62 256.105 1387.03 254.568C1382.7 253.519 1381.33 249.302 1380.82 245.263C1380.28 239.636 1380.17 233.968 1379.72 228.318C1379.51 225.608 1377.66 224.804 1375.1 224.599C1367.23 223.979 1360.79 227.449 1354.73 231.708C1346.8 237.173 1339.62 243.658 1333.38 250.996C1322.88 263.535 1312.52 276.22 1301.88 288.666C1298.18 292.999 1296.43 298.368 1293.08 302.977C1283.51 316.157 1272.84 328.687 1266.11 343.776C1265.3 345.863 1264.08 347.772 1262.54 349.393C1252.49 358.655 1246.59 370.704 1240.25 382.386C1238.71 385.212 1237.25 386.902 1234.15 387.307C1233.33 387.467 1232.57 387.828 1231.93 388.356C1231.43 388.773 1231.01 389.285 1230.7 389.861C1230.54 390.165 1230.39 390.476 1230.21 390.768C1225.8 397.756 1220.56 404.283 1218.37 412.523C1216.63 419.171 1211.18 423.989 1208.49 430.018C1206.46 434.683 1200.91 437.616 1201.39 443.057C1201.93 448.944 1196.11 449.873 1194.01 453.756C1191.63 458.106 1188.16 461.986 1186.37 466.791C1185.73 468.383 1184.65 469.756 1183.25 470.744C1172.26 478.2 1167.63 491.279 1157.76 499.734C1157.15 500.312 1156.67 501.015 1156.36 501.794C1156.04 502.574 1155.89 503.412 1155.93 504.252C1156.63 509.076 1154.99 511.817 1150.12 512.712C1145.88 513.514 1143.41 516.625 1141.18 520.007C1138.95 523.388 1136.69 526.501 1134.52 529.772C1133.08 532.014 1131.29 532.066 1128.81 531.542C1127.66 531.314 1124.93 532.973 1124.91 533.795C1124.76 542.577 1117.55 545.66 1112.16 550.203C1110.87 551.291 1109.45 552.21 1108.24 553.37C1105.99 555.53 1107.04 558.83 1110.65 561.187C1110.69 561.218 1110.74 561.25 1110.79 561.282C1112.11 562.166 1112.71 564.857 1111.14 565.101C1108.38 565.543 1105.62 565.281 1103.14 567.245C1097.23 572.128 1092.22 578.208 1084.19 579.806C1083.73 579.899 1083.25 580.006 1082.86 580.281C1082.62 580.45 1082.41 580.652 1082.22 580.88C1082.02 581.122 1081.86 581.389 1081.74 581.673C1081.57 582.082 1081.55 582.535 1081.54 582.978C1081.38 589.999 1075.88 591.743 1070.68 593.425C1067.13 594.58 1064.1 595.188 1067.11 599.707C1067.36 600.103 1067.31 601.156 1067.04 601.339C1063.03 603.955 1060.2 609.095 1054.25 607.681C1051.57 607.044 1048.91 605.401 1046.29 607.607C1040.73 612.231 1035.01 610.627 1028.85 608.809C1021.85 606.731 1014.56 605.827 1010.49 598.49C1009.3 596.323 1006.55 596.391 1004.32 596.841C999.147 597.911 995.58 595.749 992.763 591.679C989.26 586.641 986.292 581.034 979.826 578.999C979.571 578.882 979.346 578.709 979.166 578.494C978.987 578.279 978.857 578.027 978.788 577.755C978.389 575.53 979.014 572.132 976.966 571.488C974.528 570.721 971.622 571.154 970.035 569.15C967.335 565.739 965.399 561.881 965.961 557.659C966.644 552.521 964.676 548.984 962.777 544.946C961.017 541.428 959.525 537.783 958.315 534.041C957.203 530.267 956.51 526.382 956.25 522.457C956.22 520.43 956.255 518.404 956.355 516.38C956.506 513.329 953.684 510.405 953.57 507.353C953.515 505.863 953.854 504.212 953.442 502.905C952.249 499.15 951.561 495.253 951.395 491.316C951.352 487.378 951.756 483.447 952.598 479.599C953.068 476.816 952.758 473.957 951.703 471.339C951.028 469.783 950.801 468.07 951.045 466.393C955.343 449.948 952.217 432.673 957.229 416.26C958.035 413.52 957.903 410.59 956.854 407.934C951.675 393.733 952.362 378.98 954.497 364.507C955.77 355.406 955.229 346.457 954.822 337.528C954.668 333.75 952.634 330.05 950.89 326.338C950.067 324.584 948.531 323.102 946.595 323.181C942.459 323.351 939.13 325.997 935.78 328.247C928.755 332.988 921.996 338.102 915.06 342.967C910.762 345.975 909.298 351.248 905.75 354.63C902.575 357.671 897.995 359.139 894.382 361.796C891.619 363.796 889.193 366.225 887.198 368.992C883.68 373.94 877.796 376.949 875.472 382.842C874.974 384.106 874.293 385.336 873.131 386.039C868.601 388.78 862.912 389.701 859.865 394.912C859.083 396.12 858.003 397.106 856.728 397.773C855.453 398.439 854.027 398.765 852.589 398.717C844.808 398.631 841.62 403.772 839.897 410.154C838.477 415.453 836.548 419.681 830.213 420.284C828.876 420.419 827.586 422.046 826.435 423.152C817.577 431.65 807.723 439.134 800.223 449.031C799.717 449.672 799.081 450.199 798.358 450.578C797.635 450.958 796.84 451.181 796.025 451.233C788.919 450.687 784.882 456.26 779.59 459.163C778.894 459.549 778.29 460.084 777.822 460.729C777.48 461.199 777.217 461.719 777.04 462.269C776.908 462.679 776.889 463.113 776.88 463.543C776.744 470.084 772.206 472.554 767.004 475.081C762.476 477.296 758.703 481.017 754.17 483.215C749.709 485.378 750.081 491.225 745.836 493.206C745.698 493.27 745.551 493.319 745.403 493.354C745.372 493.361 745.34 493.368 745.309 493.375C743.778 493.715 742.462 492.381 742.565 490.816C742.599 490.25 742.948 489.266 742.843 489.22C741.912 488.817 740.928 488.549 739.92 488.425C739.642 488.416 739.367 488.477 739.118 488.602C739.03 488.646 738.946 488.698 738.868 488.757C738.583 488.97 738.423 489.308 738.268 489.628C732.732 501.061 720.419 503.769 711.218 510.481C710.527 510.911 709.746 511.179 708.937 511.264C708.274 511.334 707.606 511.28 706.966 511.106C706.681 511.029 706.396 510.937 706.103 510.899C702.812 510.475 701.226 513.108 700.48 515.566C698.759 521.335 698.227 517.618 696.22 515.669C693.695 513.172 689.787 514.033 686.541 514.179C684.19 514.271 684.715 516.227 685.176 517.811C685.849 520.322 683.89 520.42 682.404 520.763C680.013 521.295 677.69 519.759 675.317 519.396C672.869 519.022 669.97 519.101 667.499 518.927C666.095 518.829 664.693 519.141 663.464 519.824C655.307 524.014 647.757 521.398 641.505 516.28C639.888 514.741 637.954 513.574 635.839 512.858C633.725 512.143 631.479 511.897 629.26 512.138C627.306 512.368 625.338 512.468 623.371 512.436C622.784 512.426 622.172 512.354 621.71 511.991C621.612 511.914 621.519 511.829 621.432 511.738C621.14 511.432 620.925 511.06 620.807 510.654C620.396 508.425 620.184 510.821 621.982 509.634C624.317 508.099 625.5 506.278 623.809 504.263C621.037 500.965 617.989 498.076 617.158 493.589C617.071 493.121 616.977 492.646 616.74 492.232C616.465 491.749 616.104 491.318 615.674 490.961C615.263 490.619 614.799 490.352 614.301 490.169C613.807 489.987 613.268 489.995 612.742 489.986C606.384 489.874 603.89 482.031 597.382 482.17C596.125 482.191 594.39 480.355 593.605 478.95C588.323 469.694 581.272 461.32 579.154 450.437C578.836 448.217 578.188 446.058 577.233 444.029C569.403 429.424 566.723 413.049 563.867 397.056C560.342 376.973 554.216 357.643 549.28 337.976C547.243 329.891 543.012 322.34 539.494 314.615C538.464 312.614 537.019 310.857 535.255 309.46C527.423 302.742 514.078 301.215 505.06 306.415C495.441 312.073 485.993 318.372 476.467 324.377C469.337 328.867 462.424 333.818 454.962 337.692C446.814 341.917 439.193 346.65 433.262 353.677C429.412 358.216 424.812 360.303 418.911 361.624C411.915 363.22 405.022 365.754 399.939 371.718C397.823 374.141 394.335 375.391 391.482 377.214C389.125 378.736 386.719 380.216 384.477 381.893C379.346 385.736 378.409 393.875 369.734 394.399C363.048 394.799 358.041 401.114 350.871 401.439C348.647 401.814 346.553 402.745 344.785 404.146C338.236 408.518 330.876 410.694 323.348 412.452C318.111 413.688 315.543 416.64 315.843 422.053C315.906 423.187 315.616 424.323 315.679 425.456C315.819 426.895 315.424 428.335 314.568 429.499C313.712 430.664 312.456 431.471 311.041 431.766C304.415 432.8 298.196 435.622 293.054 439.926C292.169 440.67 290.883 440.933 289.476 441.052C287.193 441.245 284.689 437.676 282.476 438.269C279.462 439.336 276.575 440.732 273.867 442.432C273.221 442.79 272.849 444.245 272.943 445.148C273.089 446.593 273.961 446.731 275.064 446.138Z" fill="url(#paint0_linear_3353_1451)"/>
<path d="M952.754 271.726C952.831 271.799 952.958 271.735 952.943 271.629C952.659 269.519 952.491 267.395 952.44 265.267C952.473 263.609 955.212 263.586 956.398 264.744C956.85 265.185 957.284 265.645 957.699 266.122C958.673 267.477 958.971 269.362 957.449 270.449C957.346 270.523 957.232 270.579 957.113 270.623C955.737 271.137 954.292 271.442 952.827 271.53C952.728 271.536 952.682 271.657 952.754 271.726Z" fill="url(#paint1_linear_3353_1451)"/>
<path d="M275.064 446.138C278.5 444.867 282.175 447.862 280.623 451.18C278.502 455.713 274.586 458.556 267.993 459.02C265.239 459.201 261.535 459.507 260.021 461.267C254.268 467.987 245.397 469.51 238.915 474.828C237.153 476.284 235.089 478.211 232.927 477.138C225.811 473.644 222.461 477.901 219.697 483.17C218.596 485.228 217.83 486.454 214.994 486.398C211.266 486.339 207.939 489.439 203.745 489.022C201.765 488.787 199.764 489.24 198.079 490.307C196.394 491.374 195.128 492.988 194.494 494.879C193.825 496.446 192.866 497.874 191.669 499.088C190.109 500.675 188.379 502.048 185.73 501.236C181.119 499.817 177.173 499.705 174.539 505.181C173.228 507.908 169.483 507.092 166.717 507.091C163.952 507.09 163.861 508.413 163.624 511.13C162.859 520.188 158.856 523.952 150.078 524.782C148.775 524.908 147.12 523.719 145.959 522.638C144.797 521.557 144.966 518.932 142.539 520.752C131.632 528.945 119.376 534.735 107.358 540.999C95.3394 547.262 84.9467 556.06 73.5858 563.392C54.5978 575.643 36.1084 588.578 17.4143 601.233C12.647 604.239 7.42163 606.448 1.94374 607.773C1.4589 607.902 -0.11316 606.468 0.00647379 606.083C0.842578 602.277 1.69245 598.523 2.852 594.816C3.04857 594.289 3.3665 593.815 3.7801 593.434C4.03321 593.2 4.31786 593.005 4.62474 592.853C5.01374 592.661 5.45252 592.612 5.88356 592.563C12.2188 591.846 14.0057 586.437 17.2297 581.981C20.4266 577.281 24.5555 573.288 29.3601 570.249C31.8865 568.99 33.9903 567.02 35.4134 564.582C38.8404 556.592 45.7483 552.867 53.1482 550.216C59.3293 548.003 64.3377 545.362 66.7651 538.698C67.9748 536.151 69.8471 533.977 72.186 532.402C82.5083 524.588 92.8121 516.705 103.589 509.549C106.408 507.773 108.994 505.652 111.288 503.236C117.662 496.201 123.934 489.065 130.216 481.962C130.958 481.132 131.418 479.524 132.216 479.385C142.833 477.449 147.958 467.279 157.351 462.925C170.709 456.725 183.775 449.301 194.235 438.358C194.792 437.776 195.454 437.305 196.177 436.949C205.85 432.183 212.854 423.212 223.113 419.247C225.2 418.371 227.076 417.058 228.614 415.398C234.81 408.875 241.047 402.508 250.1 399.86C250.521 399.747 250.835 399.256 251.108 398.623C251.735 397.17 250.917 395.304 249.419 394.793C249.25 394.736 249.076 394.699 248.898 394.684C248.423 394.646 247.945 394.645 247.469 394.682C246.918 394.671 246.37 394.6 245.835 394.47C244.139 393.959 244.149 393.307 245.618 392.208C251.807 387.599 257.949 382.817 264.17 378.329C265.618 377.477 267.269 377.034 268.949 377.048C279.473 376.567 279.627 376.451 282.33 367.766C282.577 366.687 282.959 365.643 283.465 364.659C284.019 363.75 285.126 363.935 285.817 365.198C286.508 366.46 286.745 368.661 288.962 368.067C291.699 367.374 294.366 366.43 296.929 365.246C303.128 362.341 307.353 356.773 312.838 353.002C318.216 349.305 323.99 346.019 326.665 339.375C326.772 339.11 326.888 338.847 327.034 338.602C328.098 336.821 329.61 335.346 331.422 334.326C337.44 330.19 343.663 326.332 349.681 322.196C350.179 321.853 350.671 321.52 351.163 321.223C354.151 319.418 357.56 317.359 360.38 315.302C366.229 310.961 372.342 306.986 378.683 303.401C383.589 300.601 388.849 298.474 394.322 297.076C402.651 295.123 410.652 293.053 417.262 287.106C419.207 285.36 422.41 284.984 425.074 284.122C438.399 279.828 451.137 273.204 465.692 273.777C466.829 273.896 467.977 273.728 469.033 273.29C483.394 265.452 498.353 269.888 513.204 270.734C516.443 270.905 516.722 272.018 517.131 274.098C517.474 275.862 518.059 277.562 520.085 276.74C533.58 271.695 546.989 276.231 560.014 278.643C570.134 280.534 577.518 288.559 583.183 297.304C588.129 304.887 592.22 313.089 597.727 320.206C605.079 329.705 610.782 339.628 613.321 351.531C614.478 356.956 618.447 361.794 619.386 367.24C620.737 374.635 627.115 380.016 627.075 387.692C627.043 394.5 628.456 401.238 631.221 407.459C631.943 409.62 632.184 411.912 631.926 414.175C631.401 428.494 634.979 442.123 638.687 455.754C639.554 458.992 639.907 462.386 640.463 465.708C640.812 469.074 641.354 472.418 642.088 475.721C645.332 487.064 653.566 490.852 664.623 486.609C677.324 481.864 689.196 475.144 699.801 466.697C701.968 464.947 704.471 463.831 705.191 460.632C705.638 458.977 706.708 457.559 708.177 456.676C717.838 451.657 724.76 443.065 733.856 437.324C738.864 434.127 745.018 431.605 743.013 423.568C742.864 423.014 744.661 421.271 745.211 421.383C749.695 422.464 752.589 420.52 754.825 416.951C756.849 413.699 759.356 413.083 763.193 414.245C764.47 414.645 767.54 411.558 766.396 409.434C764.439 405.801 764.957 404.066 767.831 400.939C771.98 396.372 773.895 390.008 778.745 385.835C779.463 385.217 780.097 384.5 780.557 383.672C787.269 371.576 798.029 365.124 811.212 361.699C816.407 360.307 820.789 354.289 820.549 348.062C820.454 345.007 819.974 342.797 823.181 341.121C827.16 339.071 830.056 335.196 834.822 334.42C839.588 333.644 839.737 326.719 845.19 326.501C846.026 326.428 846.838 326.182 847.573 325.777C848.309 325.372 848.951 324.818 849.46 324.151C855.132 314.706 864.454 313.34 874.158 312.429C875.839 312.234 877.506 311.93 879.147 311.519C881.167 311.089 882.147 308.859 881.16 306.284C880.773 305.256 879.296 304.315 879.403 303.47C880.036 299.651 881.986 296.174 884.915 293.643C887.845 291.112 891.568 289.687 895.438 289.616C896.976 289.538 898.465 290.178 899.912 289.066C901.693 287.68 903.465 286.258 905.336 284.996C910.417 281.519 913.111 274.673 919.252 273.213C924.605 271.927 930.483 272.876 936.133 272.698C941.588 272.527 947.04 272.149 952.509 271.892C952.73 271.882 952.831 271.612 952.671 271.459C953.926 272.403 955.072 273.841 956.491 274.147C959.731 274.95 963.155 275.053 966.424 275.755C973.437 277.272 978.873 280.659 980.632 288.261C980.733 289.386 981.087 290.474 981.668 291.444C982.249 292.413 983.042 293.238 983.987 293.857C991.792 297.983 994.458 305.231 995.885 313.256C996.434 316.208 998.489 318.126 1000.52 320.179C1001.17 320.826 1001.94 320.999 1002.74 321.033C1005.74 321.16 1004.73 323.509 1003.48 326.239C1003.11 327.061 1002.93 328.034 1003.04 329.229C1003.37 333.167 1003.57 337.143 1001.41 340.802C999.558 343.933 1000.29 347.356 1000.37 350.768C1000.56 356.953 1000.69 363.173 1000.37 369.327C1000.02 375.917 997.017 382.381 1001.14 389.035C1002.28 390.881 1001.04 394.35 1000.59 397.015C998.935 406.922 997.383 416.784 999.504 426.85C1000.11 429.641 1000.1 432.529 999.49 435.317C995.266 452.799 998.322 470.298 999.671 487.66C1000.84 502.769 1005.52 517.458 1011.53 531.38C1014.33 537.852 1018.03 544.486 1025.24 547.9C1030.06 550.359 1035.46 551.476 1040.86 551.132C1046.27 550.788 1051.48 548.996 1055.95 545.944C1075.86 532.883 1093.35 516.466 1107.65 497.424C1111.11 492.913 1114.4 488.47 1119.23 485.262C1121.62 483.719 1123.6 481.636 1125.03 479.181C1131.79 466.809 1141.71 456.671 1149.06 444.663C1153.75 437.023 1160.1 430.458 1165.45 423.141C1169.21 418.216 1172.53 412.978 1175.4 407.485C1179.18 399.733 1186.93 395.115 1190.75 387.632C1194.35 380.619 1197.34 373.376 1202.92 367.372C1209.37 360.372 1214.1 352.052 1221.71 345.745C1226.28 342.015 1228.59 335.549 1231.36 330.019C1234.37 324.055 1235.69 317.205 1241.07 312.571C1241.86 311.754 1242.46 310.769 1242.82 309.689C1246.91 299.102 1253.64 289.735 1262.37 282.478C1266.48 278.999 1267.28 273.737 1268.99 269.047C1269.74 266.991 1270.58 263.315 1271.59 263.229C1278.86 262.637 1279.73 256.13 1283.22 252.057C1286.72 247.985 1290.76 243.599 1294.53 239.396C1296.45 237.268 1298.75 234.981 1298.3 232.057C1297.13 224.502 1302.71 220.834 1306.86 216.437C1310.53 212.132 1315.6 209.256 1321.18 208.313C1327.24 207.084 1333.05 204.899 1338.42 201.839C1353.82 193.683 1373.38 191.711 1390.98 195.328C1394.8 196.16 1399.02 195.828 1402.45 197.375C1405.03 198.54 1406.71 195.472 1408.44 197.069C1410 198.666 1411.36 200.455 1412.47 202.394C1413.98 204.716 1414.77 207.995 1416.87 209.399C1424.8 214.697 1428.39 223.016 1432.31 231.021C1435.29 237.071 1438.15 243.172 1440.92 249.278C1441.47 250.269 1441.86 251.341 1442.08 252.455C1442.6 256.938 1442.67 261.577 1443.49 265.942C1444.43 270.792 1448.3 274.488 1448.54 279.937C1448.73 284.208 1451.13 288.373 1452.28 292.65C1453.34 295.862 1453.97 299.202 1454.14 302.581C1454.05 310.68 1456.91 318.172 1458.93 325.721C1463.43 342.517 1468.88 359.059 1473.89 375.72C1478.59 391.422 1485.39 406.249 1492.3 421.043C1492.6 421.519 1492.99 421.928 1493.46 422.244C1493.92 422.559 1494.44 422.775 1494.99 422.877C1495.54 422.979 1496.11 422.965 1496.66 422.836C1497.2 422.707 1497.71 422.466 1498.16 422.127C1513.92 406.325 1522.65 394.725 1536.28 372.94C1544.08 360.494 1552.14 348.274 1558.74 335.148C1561.7 329.232 1567.15 324.562 1571.33 319.23C1573.59 316.73 1575.48 313.917 1576.94 310.878C1587.71 282.862 1593.56 271.162 1609.36 246.18C1617.76 232.793 1625.88 219.234 1633.72 205.503C1635.77 201.445 1638.58 197.824 1642 194.841C1645.37 192.175 1646.52 188.785 1648.03 185.133C1649.71 181.083 1651.37 176.815 1655.81 174.401C1660.25 171.987 1663.1 167.547 1665.07 162.639C1669.77 151.211 1678.41 143.143 1688.28 136.228C1691.96 133.665 1695.4 130.777 1699.16 128.322C1700.96 127.152 1703.34 125.773 1705.25 126.041C1711.46 126.919 1716.03 123.15 1721.23 121.219C1731.19 117.438 1740.97 111.755 1752.02 114.344C1758.47 115.862 1765.25 115.661 1771.54 118.707C1777.73 121.385 1784.15 123.491 1790.73 124.999C1793.67 125.788 1797.76 122.076 1799.83 126.124C1803.15 132.656 1812.36 134.197 1812.98 143.014C1813.21 146.276 1815.08 149.392 1816.02 152.629C1817.01 156.3 1816.35 160.781 1821.26 162.36C1821.82 162.546 1822.33 164.173 1822.16 164.997C1819.75 176.779 1821.31 188.311 1824.1 199.961C1826.23 208.67 1826.37 217.765 1828.69 226.57C1829.26 229.868 1830.52 233.009 1832.38 235.788C1833.31 236.869 1833.79 238.27 1833.71 239.694C1833.62 241.118 1832.99 242.455 1831.94 243.422C1831.23 244.297 1830.7 245.31 1830.39 246.398C1830.09 247.486 1830.01 248.625 1830.17 249.744C1830.68 256.528 1830.86 263.348 1831.65 270.096C1832.15 274.471 1835 279.128 1834.05 283.001C1832.98 287.389 1835.29 290.629 1835.27 294.478C1835.36 299.013 1835.77 303.537 1836.48 308.016C1836.6 308.858 1837.56 310.29 1838.07 310.264C1839.17 310.117 1840.19 309.575 1840.93 308.737C1845.52 303.721 1849.26 297.98 1851.98 291.744C1856.53 280.761 1862.77 270.555 1870.47 261.494C1873.75 257.619 1876.49 253.319 1878.63 248.712C1883.84 237.905 1891.92 229.077 1897.95 218.869C1903.67 209.115 1909.58 199.532 1916.07 190.278C1920.55 183.897 1924.01 176.773 1932.26 173.781C1936.04 172.418 1937.21 167.78 1938.87 164.234C1940.06 161.727 1940.03 158.005 1941.9 156.539C1949.26 150.853 1952.14 141.786 1958.34 135.264C1961.74 131.533 1965.53 128.172 1969.64 125.237C1975.66 121.083 1982.72 118.02 1987.73 113.153C1993.33 107.588 2001.43 108.091 2006.67 102.807C2007.42 101.94 2008.44 101.348 2009.56 101.123C2019.54 100.399 2027.51 94.7551 2036.18 90.7608C2038.22 89.7829 2040.53 89.5367 2042.73 90.0636C2050.56 92.6801 2057.43 92.0645 2065.44 88.8597C2074.21 85.3422 2084.48 86.3392 2094 87.9271C2108.5 90.216 2122.27 95.8863 2134.18 104.48C2136.02 105.522 2137.59 106.993 2138.75 108.765C2138.91 109.006 2139.04 109.263 2139.16 109.526C2142.46 117.074 2147.68 123.751 2149.08 132.203C2150.14 140.017 2151.8 147.737 2154.06 155.292C2157.23 164.655 2158.89 174.458 2159 184.338C2159 184.654 2158.97 184.969 2158.95 185.284C2158.93 185.519 2158.92 185.754 2158.93 185.989C2158.93 186.327 2159 186.661 2159.09 186.988C2160.97 194.03 2162.86 201.085 2164.76 208.154C2165.17 209.708 2164.91 211.347 2164.27 212.823C2161.11 220.139 2162.86 228.006 2163.4 235.433C2164.49 250.113 2163 265.081 2167.46 279.426C2167.74 280.315 2167.83 281.252 2167.73 282.178C2166.37 295.365 2171.34 307.676 2173.15 320.438C2174.83 332.05 2180.57 341.759 2186.62 351.237C2191.81 359.386 2197.7 360.2 2207.19 355.766C2223.25 348.269 2237.34 337.739 2250.31 325.949C2267.62 310.16 2284.38 293.721 2298.51 274.865C2298.8 274.474 2299.14 274.12 2299.52 273.806C2310.24 264.782 2317.24 252.536 2326.42 242.231C2355.5 209.572 2378.6 172.704 2401.3 135.665C2425.22 96.7398 2448.73 57.5736 2472.46 18.5515C2474.81 14.7114 2477.51 11.2393 2478.2 6.45316C2478.72 2.91784 2481.93 1.05484 2485.46 0.164924C2487.71 -0.438242 2490.56 0.653035 2490.78 2.78445C2490.96 6.74317 2491.89 10.632 2493.52 14.2444C2495.98 19.1515 2495.28 23.7944 2492.53 28.7066C2487.56 37.4609 2485.68 47.6158 2481.33 56.8555C2477.26 65.4991 2473.34 74.2707 2468.8 82.6874C2466.08 87.6016 2464.27 92.9659 2463.45 98.5231C2462.57 104.326 2454.98 105.414 2452.78 110.922C2449.34 119.833 2444.58 128.178 2438.66 135.676C2438.3 136.117 2438.04 136.63 2437.89 137.18C2434.82 149.529 2427.13 159.33 2420.49 169.83C2417.49 174.622 2414.89 179.663 2412.75 184.897C2409.04 193.665 2405.18 202.662 2397.64 209.137C2396.79 209.847 2395.58 210.82 2395.53 211.725C2394.9 221.694 2385.72 226.788 2382.45 234.883C2380.78 239.64 2377.31 243.55 2372.79 245.769C2370.74 246.713 2368.94 248.105 2367.5 249.841C2366.07 251.578 2365.04 253.615 2364.51 255.801C2362.17 263.944 2357.57 271.257 2351.25 276.892C2346.77 280.986 2343.57 286.466 2340.02 291.501C2336.25 296.796 2333.64 303.07 2328.2 306.961C2326.99 307.825 2326 308.975 2325.35 310.309C2322.66 315.803 2317.84 319.417 2313.09 323.084C2312.61 323.408 2312.21 323.819 2311.89 324.296C2302.94 339.053 2289.18 349.273 2277.2 361.076C2272.47 365.721 2268.04 371.271 2260.55 371.497C2258.21 371.567 2257.81 373.139 2257.26 374.548C2253.55 384.264 2246.62 389.777 2236.35 391.528C2233.58 391.989 2231 393.247 2228.93 395.149C2223.18 400.903 2216.5 400.094 2209.91 398.222C2203.32 396.35 2197.47 393.352 2190.62 392.032C2186.1 391.147 2182.58 385.984 2178.09 383.829C2174.62 382.178 2172.38 380.738 2172.69 376.627C2172.94 373.012 2171.14 370.455 2168.38 368.423C2168.12 368.234 2167.87 368.032 2167.64 367.815C2167.04 367.266 2166.42 366.747 2165.78 366.261C2165.51 366.062 2165.22 365.891 2164.93 365.742C2140.48 353.36 2134.41 329.403 2129.39 305.846C2125.54 288.403 2123.46 270.617 2123.17 252.758C2123.17 252.381 2123.12 252.004 2123.05 251.634C2117.72 225.176 2119.41 197.994 2114.96 171.447C2113.04 159.826 2110.61 148.282 2108.28 136.733C2107.67 134.564 2106.95 132.429 2106.12 130.334C2102.58 119.07 2094.96 115.228 2083.19 114.561C2059.41 113.173 2040.41 123.016 2022.72 136.924C2009.94 147.233 1998.45 159.036 1988.49 172.079C1978.97 184.189 1971.55 197.727 1961.61 209.471C1961.08 210.097 1960.68 210.821 1960.42 211.596C1956.22 223.746 1947.29 232.845 1939.57 242.681C1937.5 245.351 1935.1 248.24 1934.47 251.36C1933.03 257.798 1929.14 262.347 1924.94 266.905C1922.51 269.27 1920.98 272.41 1920.62 275.783C1920.44 278.314 1919.65 280.763 1918.32 282.926C1917 285.09 1915.17 286.904 1913 288.217C1908.98 290.707 1907.88 293.6 1910.31 297.96C1910.81 298.882 1909.81 301.377 1908.76 302.308C1894.67 314.882 1887.57 332.726 1875.24 346.552C1873.68 348.2 1872.76 350.357 1872.66 352.627C1873.2 359.793 1869.06 363.928 1864.42 368.437C1857.92 374.743 1852.2 381.828 1845.93 388.369C1841.66 392.854 1837.13 394.235 1830.8 390.976C1823.35 387.127 1815.1 384.769 1807.2 381.858C1805.6 381.295 1804.17 380.317 1803.07 379.024C1801.97 377.73 1801.24 376.169 1800.94 374.497C1797.25 359.84 1792.84 345.321 1789.88 330.525C1788.56 323.864 1786.39 317.503 1785.01 310.913C1779.84 286 1775.78 260.939 1775.29 235.422C1775.17 229.758 1775.29 224.046 1774.64 218.448C1773.99 212.849 1772.5 207.552 1771.45 202.116C1770.8 199.913 1770.43 197.635 1770.36 195.338C1771.26 181.512 1766.14 168.632 1764.51 155.166C1764.18 152.397 1761.03 150.754 1758.17 151.15C1755.37 151.61 1752.77 152.882 1750.68 154.807C1734.93 167.786 1721.36 183.208 1710.49 200.485C1705.39 208.584 1700.23 216.648 1695 224.679C1679.2 248.827 1665.78 274.23 1652.81 299.922C1647.47 310.483 1639.49 319.47 1635.25 330.608C1634.58 332.403 1631.78 333.393 1630.13 334.821C1626.32 338.347 1623.55 342.15 1623.35 347.92C1623.15 353.689 1619.96 358.796 1616.27 363.032C1609.42 370.992 1607.4 381.315 1602.13 390C1601.9 390.378 1602.88 391.749 1603.56 392.363C1604.03 392.708 1604.51 393.026 1605.02 393.314C1605.64 393.67 1605.92 394.939 1605.21 394.966C1603.23 395.027 1601.3 395.6 1599.61 396.629C1597.91 397.658 1596.52 399.108 1595.55 400.838C1592.1 406.25 1586.02 410.173 1584.97 417.004C1584.76 418.383 1584.33 419.744 1583.47 420.848C1580.14 425.164 1577.08 429.842 1573.14 433.568C1564.96 441.328 1556.35 448.665 1547.49 455.585C1540.74 460.634 1533.74 465.34 1526.51 469.688C1525.8 470.132 1525 470.41 1524.17 470.502C1523.54 470.571 1522.9 470.533 1522.29 470.389C1521.89 470.296 1521.53 470.104 1521.16 469.912C1516.58 467.481 1511.27 468.797 1506.77 467.128C1505.22 466.684 1503.65 466.356 1502.05 466.146L1484.21 462.584C1483.91 462.523 1483.61 462.439 1483.32 462.331C1467.38 456.385 1454.34 446.11 1442.46 434.288C1441.48 433.152 1440.6 431.943 1439.81 430.67C1439.59 430.312 1439.34 429.975 1439.07 429.653C1438.22 428.648 1437.51 427.538 1436.95 426.35C1436.8 426.036 1436.69 425.703 1436.61 425.366C1434.35 416.664 1428.05 409.878 1425.12 401.796C1422.89 395.603 1419 389.48 1418.96 382.81C1418.92 376.141 1416.55 369.888 1414.81 363.508C1414.52 362.434 1413.63 361.188 1413.96 360.339C1415.21 356.555 1415.5 352.516 1414.78 348.593C1414.2 344.702 1412.15 340.445 1413.17 337.093C1414.44 332.853 1411.73 329.59 1412.49 325.489C1413.25 321.389 1411.15 316.958 1410.08 312.698C1409.84 311.797 1410.02 308.315 1407.67 311.042C1406.11 312.851 1404.9 315.368 1404.28 311.282C1403.29 304.589 1403.99 297.646 1402.98 290.957C1402.31 286.533 1406.14 281.146 1402.98 278.447C1398.8 274.834 1399.8 270.299 1397.93 266.495C1395.51 261.574 1393.62 256.105 1387.03 254.568C1382.7 253.519 1381.33 249.302 1380.82 245.263C1380.28 239.636 1380.17 233.968 1379.72 228.318C1379.51 225.608 1377.66 224.804 1375.1 224.599C1367.23 223.979 1360.79 227.449 1354.73 231.708C1346.8 237.173 1339.62 243.658 1333.38 250.996C1322.88 263.535 1312.52 276.22 1301.88 288.666C1298.18 292.999 1296.43 298.368 1293.08 302.977C1283.51 316.157 1272.84 328.687 1266.11 343.776C1265.3 345.863 1264.08 347.772 1262.54 349.393C1252.49 358.655 1246.59 370.704 1240.25 382.386C1238.71 385.212 1237.25 386.902 1234.15 387.307C1233.33 387.467 1232.57 387.828 1231.93 388.356C1231.43 388.773 1231.01 389.285 1230.7 389.861C1230.54 390.165 1230.39 390.476 1230.21 390.768C1225.8 397.756 1220.56 404.283 1218.37 412.523C1216.63 419.171 1211.18 423.989 1208.49 430.018C1206.46 434.683 1200.91 437.616 1201.39 443.057C1201.93 448.944 1196.11 449.873 1194.01 453.756C1191.63 458.106 1188.16 461.986 1186.37 466.791C1185.73 468.383 1184.65 469.756 1183.25 470.744C1172.26 478.2 1167.63 491.279 1157.76 499.734C1157.15 500.312 1156.67 501.015 1156.36 501.794C1156.04 502.574 1155.89 503.412 1155.93 504.252C1156.63 509.076 1154.99 511.817 1150.12 512.712C1145.88 513.514 1143.41 516.625 1141.18 520.007C1138.95 523.388 1136.69 526.501 1134.52 529.772C1133.08 532.014 1131.29 532.066 1128.81 531.542C1127.66 531.314 1124.93 532.973 1124.91 533.795C1124.76 542.577 1117.55 545.66 1112.16 550.203C1110.87 551.291 1109.45 552.21 1108.24 553.37C1105.99 555.53 1107.04 558.83 1110.65 561.187C1110.69 561.218 1110.74 561.25 1110.79 561.282C1112.11 562.166 1112.71 564.857 1111.14 565.101C1108.38 565.543 1105.62 565.281 1103.14 567.245C1097.23 572.128 1092.22 578.208 1084.19 579.806C1083.73 579.899 1083.25 580.006 1082.86 580.281C1082.62 580.45 1082.41 580.652 1082.22 580.88C1082.02 581.122 1081.86 581.389 1081.74 581.673C1081.57 582.082 1081.55 582.535 1081.54 582.978C1081.38 589.999 1075.88 591.743 1070.68 593.425C1067.13 594.58 1064.1 595.188 1067.11 599.707C1067.36 600.103 1067.31 601.156 1067.04 601.339C1063.03 603.955 1060.2 609.095 1054.25 607.681C1051.57 607.044 1048.91 605.401 1046.29 607.607C1040.73 612.231 1035.01 610.627 1028.85 608.809C1021.85 606.731 1014.56 605.827 1010.49 598.49C1009.3 596.323 1006.55 596.391 1004.32 596.841C999.147 597.911 995.58 595.749 992.763 591.679C989.26 586.641 986.292 581.034 979.826 578.999C979.571 578.882 979.346 578.709 979.166 578.494C978.987 578.279 978.857 578.027 978.788 577.755C978.389 575.53 979.014 572.132 976.966 571.488C974.528 570.721 971.622 571.154 970.035 569.15C967.335 565.739 965.399 561.881 965.961 557.659C966.644 552.521 964.676 548.984 962.777 544.946C961.017 541.428 959.525 537.783 958.315 534.041C957.203 530.267 956.51 526.382 956.25 522.457C956.22 520.43 956.255 518.404 956.355 516.38C956.506 513.329 953.684 510.405 953.57 507.353C953.515 505.863 953.854 504.212 953.442 502.905C952.249 499.15 951.561 495.253 951.395 491.316C951.352 487.378 951.756 483.447 952.598 479.599C953.068 476.816 952.758 473.957 951.703 471.339C951.028 469.783 950.801 468.07 951.045 466.393C955.343 449.948 952.217 432.673 957.229 416.26C958.035 413.52 957.903 410.59 956.854 407.934C951.675 393.733 952.362 378.98 954.497 364.507C955.77 355.406 955.229 346.457 954.822 337.528C954.668 333.75 952.634 330.05 950.89 326.338C950.067 324.584 948.531 323.102 946.595 323.181C942.459 323.351 939.13 325.997 935.78 328.247C928.755 332.988 921.996 338.102 915.06 342.967C910.762 345.975 909.298 351.248 905.75 354.63C902.575 357.671 897.995 359.139 894.382 361.796C891.619 363.796 889.193 366.225 887.198 368.992C883.68 373.94 877.796 376.949 875.472 382.842C874.974 384.106 874.293 385.336 873.131 386.039C868.601 388.78 862.912 389.701 859.865 394.912C859.083 396.12 858.003 397.106 856.728 397.773C855.453 398.439 854.027 398.765 852.589 398.717C844.808 398.631 841.62 403.772 839.897 410.154C838.477 415.453 836.548 419.681 830.213 420.284C828.876 420.419 827.586 422.046 826.435 423.152C817.577 431.65 807.723 439.134 800.223 449.031C799.717 449.672 799.081 450.199 798.358 450.578C797.635 450.958 796.84 451.181 796.025 451.233C788.919 450.687 784.882 456.26 779.59 459.163C778.894 459.549 778.29 460.084 777.822 460.729C777.48 461.199 777.217 461.719 777.04 462.269C776.908 462.679 776.889 463.113 776.88 463.543C776.744 470.084 772.206 472.554 767.004 475.081C762.476 477.296 758.703 481.017 754.17 483.215C749.709 485.378 750.081 491.225 745.836 493.206C745.698 493.27 745.551 493.319 745.403 493.354C745.372 493.361 745.34 493.368 745.309 493.375C743.778 493.715 742.462 492.381 742.565 490.816C742.599 490.25 742.948 489.266 742.843 489.22C741.912 488.817 740.928 488.549 739.92 488.425C739.642 488.416 739.367 488.477 739.118 488.602C739.03 488.646 738.946 488.698 738.868 488.757C738.583 488.97 738.423 489.308 738.268 489.628C732.732 501.061 720.419 503.769 711.218 510.481C710.527 510.911 709.746 511.179 708.937 511.264C708.274 511.334 707.606 511.28 706.966 511.106C706.681 511.029 706.396 510.937 706.103 510.899C702.812 510.475 701.226 513.108 700.48 515.566C698.759 521.335 698.227 517.618 696.22 515.669C693.695 513.172 689.787 514.033 686.541 514.179C684.19 514.271 684.715 516.227 685.176 517.811C685.849 520.322 683.89 520.42 682.404 520.763C680.013 521.295 677.69 519.759 675.317 519.396C672.869 519.022 669.97 519.101 667.499 518.927C666.095 518.829 664.693 519.141 663.464 519.824C655.307 524.014 647.757 521.398 641.505 516.28C639.888 514.741 637.954 513.574 635.839 512.858C633.725 512.143 631.479 511.897 629.26 512.138C627.306 512.368 625.338 512.468 623.371 512.436C622.784 512.426 622.172 512.354 621.71 511.991C621.612 511.914 621.519 511.829 621.432 511.738C621.14 511.432 620.925 511.06 620.807 510.654C620.396 508.425 620.184 510.821 621.982 509.634C624.317 508.099 625.5 506.278 623.809 504.263C621.037 500.965 617.989 498.076 617.158 493.589C617.071 493.121 616.977 492.646 616.74 492.232C616.465 491.749 616.104 491.318 615.674 490.961C615.263 490.619 614.799 490.352 614.301 490.169C613.807 489.987 613.268 489.995 612.742 489.986C606.384 489.874 603.89 482.031 597.382 482.17C596.125 482.191 594.39 480.355 593.605 478.95C588.323 469.694 581.272 461.32 579.154 450.437C578.836 448.217 578.188 446.058 577.233 444.029C569.403 429.424 566.723 413.049 563.867 397.056C560.342 376.973 554.216 357.643 549.28 337.976C547.243 329.891 543.012 322.34 539.494 314.615C538.464 312.614 537.019 310.857 535.255 309.46C527.423 302.742 514.078 301.215 505.06 306.415C495.441 312.073 485.993 318.372 476.467 324.377C469.337 328.867 462.424 333.818 454.962 337.692C446.814 341.917 439.193 346.65 433.262 353.677C429.412 358.216 424.812 360.303 418.911 361.624C411.915 363.22 405.022 365.754 399.939 371.718C397.823 374.141 394.335 375.391 391.482 377.214C389.125 378.736 386.719 380.216 384.477 381.893C379.346 385.736 378.409 393.875 369.734 394.399C363.048 394.799 358.041 401.114 350.871 401.439C348.647 401.814 346.553 402.745 344.785 404.146C338.236 408.518 330.876 410.694 323.348 412.452C318.111 413.688 315.543 416.64 315.843 422.053C315.906 423.187 315.616 424.323 315.679 425.456C315.819 426.895 315.424 428.335 314.568 429.499C313.712 430.664 312.456 431.471 311.041 431.766C304.415 432.8 298.196 435.622 293.054 439.926C292.169 440.67 290.883 440.933 289.476 441.052C287.193 441.245 284.689 437.676 282.476 438.269C279.462 439.336 276.575 440.732 273.867 442.432C273.221 442.79 272.849 444.245 272.943 445.148C273.089 446.593 273.961 446.731 275.064 446.138Z" stroke="black" stroke-opacity="0.02" stroke-width="4" mask="url(#path-1-inside-1_3353_1451)"/>
<path d="M952.754 271.726C952.831 271.799 952.958 271.735 952.943 271.629C952.659 269.519 952.491 267.395 952.44 265.267C952.473 263.609 955.212 263.586 956.398 264.744C956.85 265.185 957.284 265.645 957.699 266.122C958.673 267.477 958.971 269.362 957.449 270.449C957.346 270.523 957.232 270.579 957.113 270.623C955.737 271.137 954.292 271.442 952.827 271.53C952.728 271.536 952.682 271.657 952.754 271.726Z" stroke="black" stroke-opacity="0.02" stroke-width="4" mask="url(#path-1-inside-1_3353_1451)"/>
<defs>
<linearGradient id="paint0_linear_3353_1451" x1="1247.52" y1="0" x2="1247.52" y2="610.626" gradientUnits="userSpaceOnUse">
<stop stop-color="#F3A85A"/>
<stop offset="1" stop-color="#C66500"/>
</linearGradient>
<linearGradient id="paint1_linear_3353_1451" x1="1247.52" y1="0" x2="1247.52" y2="610.626" gradientUnits="userSpaceOnUse">
<stop stop-color="#F3A85A"/>
<stop offset="1" stop-color="#C66500"/>
</linearGradient>
</defs>
</svg>
