<svg width="4608" height="6029" viewBox="0 0 4608 6029" fill="none" xmlns="http://www.w3.org/2000/svg">
<path d="M335.444 892.772C350.217 871.441 352.723 851.043 332.408 831.139C326.655 825.553 319.034 817.901 318.998 811.154C318.92 785.451 302.157 765.375 297.83 741.401C296.671 734.86 295.732 726.712 288.928 725.014C266.601 719.346 267.202 703.616 271.008 686.751C272.448 680.125 273.061 675.969 266.678 670.753C258.317 663.865 256.793 650.74 246.726 643.764C241.901 640.556 238.328 635.784 236.608 630.252C234.888 624.719 235.127 618.762 237.283 613.384C238.754 608.654 239.322 603.69 238.957 598.75C238.493 592.299 237.251 586.005 229.86 582.814C216.984 577.269 208.041 570.086 212.522 553.009C214.756 544.506 204.934 539.259 198.811 534.054C192.689 528.849 194.98 525.749 199.572 519.29C214.935 497.805 213.165 481.94 195.302 463.571C192.657 460.84 186.754 460.356 182.149 460.559C177.543 460.763 172.974 466.89 171.03 458.295C162.322 419.625 146.101 383.733 131.301 347.241C116.5 310.749 110.069 271.71 98.7326 234.093C79.7835 171.226 63.2238 107.786 45.6853 44.5781C40.7959 28.9493 33.3918 14.2216 23.764 0.974956C22.9357 -0.22551 16.7552 -0.0108149 16.2956 1.06573C10.9791 11.0624 5.7911 20.9699 1.37669 31.3568C0.818676 32.8939 0.630281 34.5408 0.826889 36.1643C1.0235 37.7877 1.59984 39.3425 2.50866 40.702C16.9328 54.5447 10.3224 70.3704 9.02477 86.8337C7.24824 103.256 8.8658 119.867 13.7773 135.638C16.9958 143.183 17.9421 151.504 16.5001 159.579C9.03977 183.712 17.3114 204.964 28.6952 224.765C38.2064 241.301 44.3166 256.577 37.1406 275.894C35.0215 283.808 35.0696 292.146 37.2802 300.035C45.4088 336.764 53.3663 373.612 63.7394 409.741C66.6348 418.979 68.3648 428.542 68.8896 438.209C69.7488 465.778 70.1897 493.383 70.7162 520.928C70.7967 524.163 68.7866 528.587 70.2893 530.398C90.1393 554.673 82.3303 586.831 94.9179 614.155C113.284 654.072 128.536 696.264 130.458 741.516C144.482 771.013 142.388 805.492 158.198 834.643C161.166 840.513 162.846 846.949 163.123 853.521C164.551 879.621 166.365 905.456 181.411 928.362C183.097 930.806 179.579 936.714 178.449 941.038C175.528 940.015 172.496 939.197 169.645 938C168.281 937.077 167.006 936.028 165.838 934.867C164.599 933.854 163.252 932.979 161.823 932.259C157.109 930.195 155.904 931.659 157.085 936.856C162.101 958.71 166.688 980.858 172.004 1002.5C173.603 1007.12 176.425 1011.21 180.168 1014.34C202.551 1035.22 202.675 1035.77 192.299 1060.08C190.816 1062.93 189.695 1065.96 188.96 1069.09C188.475 1072.14 191.275 1073.82 195.182 1072.33C199.088 1070.83 203.756 1066.41 207.543 1071.9C212.295 1078.58 216.418 1085.7 219.86 1093.14C228.111 1111.25 226.975 1131.52 232.012 1150.19C237.049 1168.87 243.803 1187.37 236.54 1207.57C235.241 1213.9 235.736 1220.46 237.97 1226.52C243.499 1247.01 250.006 1267.26 255.534 1287.75C257.762 1296.02 260.122 1303.57 269.851 1304.83C268.504 1310.95 264.913 1317.66 266.228 1323.15C270.998 1343.77 277.041 1364.07 284.321 1383.95C289.906 1399.38 297.541 1414 307.02 1427.39C321.774 1447.4 335.583 1467.05 339.011 1492.65C340.027 1500.18 346.407 1507.04 350.679 1513.97C372.081 1548.56 387.797 1587.21 421.085 1613.35C423.824 1615.23 426.05 1617.76 427.56 1620.72C444.582 1665.1 486.039 1683.46 520.496 1709.55C527.985 1715.27 530.7 1713.33 535.522 1709.5C539.603 1706.24 544.097 1703.58 547.033 1709.21C567.398 1745.79 605.612 1761 638.977 1780.19C664.933 1795.06 696.384 1791.21 725.388 1782.52C750.612 1775.06 775.109 1764.61 800.699 1759.23C834.857 1752.05 866.161 1740.83 894.194 1719.28C906.969 1709.45 924.863 1706.22 937.196 1695.93C954.112 1682.11 978.358 1682.21 992.723 1665.15C1005.47 1650.02 1021.29 1637.78 1039.12 1629.21C1044.79 1625.79 1049.64 1621.17 1053.33 1615.68C1079.13 1583 1112.71 1559.58 1146.58 1536.4C1154.6 1530.87 1161.77 1524.02 1169.26 1517.72C1176.37 1510.92 1183.86 1504.55 1191.71 1498.62C1220.25 1479.62 1245.6 1486.75 1262.08 1516.96C1281.25 1551.37 1294.87 1588.6 1302.43 1627.26C1303.93 1635.22 1307.37 1642.4 1302.94 1650.84C1300.81 1655.34 1300.51 1660.49 1302.1 1665.21C1314.02 1694.51 1313.16 1726.56 1322.48 1756.39C1327.54 1772.9 1336.41 1790.06 1316.84 1804.07C1315.47 1805.02 1316.17 1812.26 1317.59 1813.05C1329.55 1819.1 1332.29 1828.85 1330.52 1840.96C1328.88 1851.97 1333.27 1858.05 1343.95 1862.71C1347.53 1864.23 1348.51 1876.84 1341.97 1879.38C1330.8 1883.74 1328.68 1888.55 1329.15 1900.89C1329.78 1920.14 1320.79 1939.12 1325.69 1958.97C1316.09 2000.08 1327.75 2035.89 1351.26 2069.41C1360.14 2082.27 1358.5 2103.84 1346.25 2117.17C1340.28 2123.75 1335.06 2127.74 1339 2137.49C1343.95 2149.51 1343.06 2163.54 1352.14 2174.24C1361.23 2184.93 1348.52 2200.53 1360.17 2211.28C1361.89 2213.02 1363.22 2215.09 1364.09 2217.37C1364.95 2219.65 1365.33 2222.09 1365.2 2224.53C1359.97 2256.11 1378.02 2276.68 1397.78 2296.97C1401.13 2300.57 1404.25 2304.38 1407.11 2308.38C1410.77 2313.13 1408.74 2319.91 1401.7 2323.75C1398.91 2325.3 1393.87 2324.6 1392.52 2326.68C1386.73 2336.32 1384.5 2347.68 1386.21 2358.8C1387.93 2369.92 1393.48 2380.08 1401.91 2387.53C1405.17 2390.6 1409.67 2391.98 1410.78 2397.17C1412.11 2403.59 1413.36 2410.07 1415.12 2416.39C1419.82 2433.65 1412.88 2453.87 1423.73 2468.67C1433.15 2481.6 1447.95 2490.56 1460.11 2501.6C1472.28 2512.63 1484.03 2524.14 1496.08 2535.38L1494.38 2535.48C1498.93 2535.75 1504.18 2534.73 1507.89 2536.72C1516.57 2541.05 1524.35 2547.27 1532.9 2551.87C1551.28 2561.72 1569.69 2564.46 1587.89 2550.95C1590.23 2548.65 1593.07 2546.91 1596.18 2545.86C1599.29 2544.81 1602.6 2544.47 1605.86 2544.88C1630.9 2550.45 1650.44 2539.43 1668.71 2524.36C1675.49 2518.86 1683.64 2518.49 1692.01 2517.77C1700.38 2517.06 1702.69 2529.39 1711.69 2524.83C1708.92 2516.87 1707.46 2509.52 1714.63 2502.49C1722.78 2494.4 1730.69 2485.96 1732.81 2473.81C1734.61 2463.39 1742.67 2457.19 1749.27 2449.79C1761.34 2436.46 1773.33 2422.94 1784.22 2408.72C1795.85 2393.48 1801.38 2373.52 1823.03 2366.56C1829.04 2364.63 1832.83 2354.61 1836.84 2347.86C1851.84 2322.82 1866.98 2298.08 1890.63 2279.8C1897.22 2274.76 1902.65 2268.36 1906.54 2261.03C1930.11 2214.39 1969.82 2181.42 2005.5 2145.54C2036.55 2114.31 2074.56 2090.62 2114.08 2071.13C2132.45 2062.07 2153.14 2054.37 2175.52 2060.38C2190.82 2064.02 2204.87 2071.71 2216.18 2082.65C2227.49 2093.59 2235.65 2107.36 2239.8 2122.54C2259.26 2188.93 2267.05 2258.2 2262.83 2327.26C2262.01 2343.77 2260.91 2359.78 2265.57 2375.99C2267.94 2383.89 2268.41 2392.24 2266.95 2400.36C2258.61 2440.47 2261.48 2481.59 2255.12 2521.99C2251.11 2547.73 2252.8 2574.22 2250.87 2600.49C2249.91 2618.46 2247.41 2636.32 2243.4 2653.86C2237.18 2678.15 2245.62 2702.95 2239.99 2726.71C2234.74 2749 2227.73 2770.67 2228.76 2794.45C2229.87 2822.1 2224.67 2849.42 2229.63 2877.7C2232.72 2894.56 2225.66 2913.23 2221.37 2930.68C2216.79 2949.53 2206.82 2967.17 2210 2987.57C2210.22 2990.87 2209.69 2994.18 2208.45 2997.24C2197.57 3028.38 2194.82 3061.77 2200.46 3094.27C2203.02 3109.71 2194.88 3122.86 2189.84 3136.47C2187.62 3142.43 2182.55 3152.13 2184.63 3154.23C2199.59 3169.22 2189.27 3185.27 2189.34 3200.86C2189.4 3216.45 2190.08 3233.76 2190.51 3250.17C2190.75 3258.49 2191.53 3267.88 2185.03 3273.5C2168.22 3288.02 2173.67 3306.66 2174.57 3324.2C2174.59 3340.64 2180.4 3356.55 2190.97 3369.14C2202.05 3383.26 2210.81 3399.05 2216.91 3415.92C2235.65 3462.98 2275.21 3504.17 2320.96 3529.3C2330.99 3534.66 2339.7 3543.33 2350.22 3546.39C2358.12 3548.66 2356.06 3558.62 2362.89 3558.34C2369.36 3557.74 2375.72 3556.33 2381.83 3554.13C2389.55 3551.84 2397.46 3546.07 2404.76 3546.92C2432.29 3550.13 2455.89 3538.47 2479.65 3528.15C2497.63 3520.37 2515.44 3512.25 2533.07 3503.95C2536.16 3502.8 2539.05 3501.17 2541.63 3499.12C2551.21 3490.17 2560.11 3480.04 2570.14 3471.92C2581.37 3462.97 2596.89 3462.07 2607.67 3450.46C2616.15 3441.38 2629.29 3436.67 2639.88 3429.37C2648.29 3424.26 2655.96 3418.05 2662.71 3410.9C2677.75 3392.8 2698.19 3381.61 2716.88 3368.71C2758.47 3340.01 2801.68 3313.68 2844.13 3286.23C2884.11 3260.35 2927.07 3240.33 2970.23 3220.61C2971.78 3220.12 2973.42 3219.95 2975.04 3220.12C2976.66 3220.3 2978.22 3220.8 2979.63 3221.62C2981.05 3222.43 2982.27 3223.53 2983.24 3224.84C2984.2 3226.15 2984.88 3227.65 2985.23 3229.24C2990.34 3293.88 2987.82 3335.99 2976.96 3409.87C2970.79 3452.1 2965.63 3494.33 2955.51 3535.8C2950.92 3554.47 2954.19 3575.06 2953.39 3594.73C2953.69 3604.52 2952.57 3614.3 2950.08 3623.78C2921.17 3706.06 2912.07 3742.96 2900 3828C2893.38 3873.45 2885.82 3918.74 2877.31 3963.89C2874.19 3976.71 2873.59 3990.02 2875.55 4003.07C2877.99 4015.32 2874.16 4024.99 2870.62 4035.91C2866.71 4048.04 2862.34 4060.6 2867.62 4074.3C2872.89 4088 2870.85 4103.21 2865.97 4117.78C2854.84 4151.91 2858.77 4186.03 2867.6 4219.93C2870.91 4232.52 2873.08 4245.39 2876.78 4257.9C2878.56 4263.88 2881.23 4271.41 2885.96 4274.41C2901.35 4284.17 2904.39 4301.12 2912.25 4315.19C2927.16 4342.3 2938.1 4373.29 2967.43 4388.37C2984.58 4397.17 2999.19 4410.37 3018.85 4415.48C3037.59 4421.21 3055.77 4428.64 3073.16 4437.69C3081.15 4441.47 3083.21 4457.39 3095.41 4452.33C3115.08 4444.14 3138.36 4458.07 3156.33 4439.73C3162.97 4432.93 3172.99 4429.56 3181.16 4424.17C3190.25 4417.9 3197.24 4406.75 3211.09 4412.51C3212.66 4413.14 3216.85 4410.5 3218.03 4408.35C3234.88 4377.74 3260.07 4355.18 3288.17 4334.64C3309.28 4319.38 3326.71 4299.51 3348.43 4284.4C3355.9 4278.17 3364.6 4273.59 3373.96 4270.96C3378.06 4270.32 3381.74 4268.11 3384.24 4264.8C3386.74 4261.49 3387.86 4257.35 3387.36 4253.23C3387.43 4249.95 3388.17 4246.71 3389.54 4243.73C3390.91 4240.75 3392.89 4238.08 3395.34 4235.9C3409.26 4221.86 3422.49 4207.1 3436.94 4193.65C3446.29 4184.92 3461.36 4179.97 3466.55 4169.61C3472.45 4157.88 3483.67 4155.08 3490.86 4146.51C3499.61 4136.65 3509.02 4127.4 3519.04 4118.84C3520.88 4117.19 3525.7 4115.83 3526.78 4116.85C3528.95 4119.26 3530.18 4122.37 3530.23 4125.61C3530.96 4145.36 3528.41 4165.1 3522.7 4184.03C3512.09 4216.91 3506.67 4251.24 3506.65 4285.79C3506.61 4300.54 3504.59 4315.22 3500.63 4329.43C3491.82 4363.17 3493.08 4397.92 3487.19 4431.86C3481.48 4464.21 3476.52 4496.55 3473.45 4529.24C3471.37 4551.82 3465.6 4574.09 3478.23 4596.25C3484.01 4606.38 3477.87 4618.84 3474.88 4629.83C3472.78 4637.6 3465.7 4645.78 3467.08 4652.55C3472.68 4679 3461.97 4704.49 3463.4 4730.59C3463.91 4745.26 3465.97 4759.83 3469.54 4774.07C3475.03 4794.58 3484.9 4814.67 3486.81 4834.87C3488.72 4857.72 3507.59 4871.86 3509.24 4893.43C3509.27 4896.76 3510.41 4899.98 3512.47 4902.6C3533.18 4922.98 3540.19 4950.48 3551.87 4975.66C3554.54 4981.66 3559.19 4986.56 3565.05 4989.53C3587.3 4998.48 3601.34 5012.78 3613.03 5034.96C3625.81 5059.25 3650.41 5076.38 3674.47 5090.79C3710.88 5113.04 3752.02 5126.41 3794.55 5129.82C3801.02 5131.08 3807.7 5130.65 3813.95 5128.59C3835.75 5117.72 3860.38 5112.88 3879.74 5096.54C3896.79 5081.23 3915.01 5067.29 3934.24 5054.83C3959.27 5039.82 3981.73 5020.91 4000.77 4998.8C4001.63 4997.41 4002.65 4996.13 4003.83 4994.98C4023.66 4981.3 4043.54 4967.58 4063.46 4953.83C4068.07 4927.49 4089.07 4912.06 4105.81 4895.06C4136.81 4863.67 4162.33 4826.45 4201.15 4803.2C4222.81 4769.28 4258.43 4751.02 4287.45 4725.3C4313.04 4702.78 4344.03 4692.09 4375.26 4682.51C4402.08 4674.25 4416.67 4683.55 4429.3 4711.22C4450.74 4758.07 4462.09 4807.89 4468.58 4858.4C4477.26 4926.65 4483.43 4995.3 4478.92 5064.35C4486.3 5105.21 4478.44 5146.2 4479.38 5187C4482.22 5314.01 4463.91 5439.1 4444.41 5563.81C4424.05 5695 4402.31 5825.94 4381.34 5956.97C4379.31 5969.89 4378.76 5982.68 4371.27 5994.56C4365.76 6003.36 4369.36 6013.53 4375.49 6022.14C4379.34 6027.72 4387.71 6030.68 4392.2 6026.37C4400.05 6017.95 4409.43 6011.09 4419.84 6006.16C4434.54 5999.95 4441.72 5988.35 4444.89 5972.3C4450.38 5943.58 4465.34 5917.56 4473.1 5888.91C4480.38 5862.13 4488.21 5835.33 4494.02 5808.16C4497.25 5792.16 4503.34 5776.88 4512 5763.04C4520.98 5748.55 4506.23 5731.83 4511.73 5715.51C4520.9 5689.31 4526.08 5661.88 4527.11 5634.15C4527.14 5632.49 4527.53 5630.86 4528.24 5629.37C4544.69 5596.25 4546.12 5560.08 4551.22 5524.35C4553.58 5508.09 4557.34 5492.05 4562.44 5476.42C4570.76 5450.05 4579.16 5422.87 4574.66 5394.33C4574.11 5391.16 4573.28 5386.74 4574.86 5384.63C4592.23 5361.38 4581.52 5332.83 4589.53 5308.76C4594.8 5295.09 4594.48 5279.9 4588.64 5266.47C4585.89 5260.53 4584.52 5254.05 4584.61 5247.51C4584.71 5240.97 4586.28 5234.53 4589.21 5228.68C4599.36 5206.26 4602.96 5181.42 4599.58 5157.03C4597.39 5139.56 4600.61 5121.39 4602.23 5103.56C4604.05 5082.62 4611.33 5061.72 4603.17 5040.71C4610.54 5021.32 4606.16 5002.13 4602.11 4982.96C4601.68 4981.35 4601.55 4979.68 4601.75 4978.02C4609.74 4928.52 4598.53 4880 4594.25 4831.31C4592.52 4812.13 4593.16 4791.5 4577.01 4776.89C4571.96 4772.33 4574.05 4768.11 4575.49 4763.95C4585.58 4735.47 4580.62 4710.22 4561.18 4686.99C4555.91 4680.75 4552.58 4673.12 4551.58 4665.01C4549.69 4641.45 4533.39 4630.67 4515.29 4622.4C4497.18 4614.14 4478.59 4609.76 4460.94 4599.78C4449.27 4593.22 4431.76 4598.02 4417.76 4594.33C4406.98 4591.45 4399.3 4590.42 4392.25 4600.1C4385.71 4608.97 4376.38 4611.04 4365.86 4610.01C4362.57 4610.21 4359.28 4610.18 4355.99 4609.92C4277.86 4590.42 4218.96 4632.27 4163.15 4675.2C4121.34 4706.88 4082.87 4742.73 4048.33 4782.21C3986.08 4830.85 3938.38 4894.71 3878.14 4945.45C3851.99 4967.54 3824.89 4988.52 3797.98 5009.68C3792.55 5013.33 3786.93 5016.7 3781.15 5019.78C3752.11 5038.04 3728.02 5032.2 3700.7 5011.5C3645.47 4969.8 3621.96 4912.23 3609 4848.14C3600.14 4801.28 3596.94 4753.52 3599.44 4705.89C3601.24 4659.97 3610.75 4614.87 3610.38 4568.93C3625.51 4533.17 3622.66 4495.02 3624.15 4457.54C3624.6 4447.74 3624.72 4436.83 3629.2 4428.74C3638.12 4411.76 3638.09 4394.38 3637.39 4376.39C3636.46 4366.58 3638.99 4356.75 3644.54 4348.6C3648.9 4342.66 3651.77 4335.75 3652.91 4328.47C3654.05 4321.19 3653.43 4313.74 3651.1 4306.74C3646.87 4293.65 3649.89 4285.18 3663.47 4280.1C3666.33 4279.02 3668.81 4271.61 3668.24 4267.57C3660.73 4213.21 3678.63 4160.36 3677.38 4106.54C3677.02 4099.95 3679.05 4093.45 3683.09 4088.23C3697.8 4073.4 3696.41 4056.45 3694.64 4037.74C3692.14 4011.55 3692.8 3985.09 3691.26 3958.81C3690.25 3940.84 3682.82 3929.26 3662.68 3924.55C3638.94 3919.03 3616.26 3908.73 3593.29 3900.29C3588.68 3898.52 3583.69 3898 3578.82 3898.79C3573.95 3899.58 3569.38 3901.65 3565.57 3904.79C3529.81 3930.28 3492.72 3954.11 3458.3 3981.27C3442.83 3993.53 3426.06 4003.52 3410.6 4015.51C3352.25 4060.9 3296.07 4108.71 3246.93 4164.26C3235.99 4176.56 3225.5 4189.42 3213.53 4200.6C3201.56 4211.77 3188.27 4220.68 3175.72 4230.73C3170.13 4234.38 3165.03 4238.73 3160.54 4243.68C3136.49 4275.96 3100.9 4294.82 3071.96 4321.57C3066 4327.07 3055.94 4324.77 3050.35 4318.5C3045.02 4312.21 3041.66 4304.5 3040.68 4296.32C3030.25 4237.93 3029.27 4178.25 3037.75 4119.56C3041.7 4092.02 3045.46 4064.45 3049.03 4036.85C3059.54 3953.66 3077.67 3872.16 3097.34 3790.88C3105.41 3757.46 3104.67 3722.54 3116.27 3689.91C3118.17 3684.68 3113.84 3677.22 3112.86 3670.94C3111.08 3655.97 3112.11 3642.34 3122.54 3629.2C3132.96 3616.06 3135.5 3598.74 3135.32 3582.41C3135.15 3551.9 3150.11 3525.25 3154.82 3496.12C3155.01 3494.84 3159.76 3493.66 3162.43 3493.58C3165.62 3493.8 3168.76 3494.36 3171.82 3495.27C3171.57 3493.8 3171.84 3491.71 3170.97 3490.92C3166.71 3487.06 3163.51 3482.16 3161.71 3476.69C3159.9 3471.23 3159.54 3465.39 3160.67 3459.74C3163.46 3439.4 3155.84 3417.07 3171.4 3398.99C3171.75 3381.15 3174.62 3362.85 3172.71 3345.12C3169.21 3312.54 3163.97 3280.08 3157.4 3248.09C3151.96 3224.21 3145.33 3200.61 3137.53 3177.38C3136.8 3175.06 3135.55 3172.93 3133.87 3171.16C3132.2 3169.39 3130.15 3168.02 3127.88 3167.15C3112.13 3164.6 3102.63 3150.83 3089.02 3145.86C3084.76 3143.94 3080.65 3141.69 3076.73 3139.15L3029.36 3112.79C2982.51 3095.51 2933.87 3093.62 2884.86 3097.44C2879.96 3098.21 2875.14 3099.42 2870.46 3101.05C2865.55 3101.67 2860.79 3103.1 2856.35 3105.28C2834.77 3121.05 2807.44 3124.09 2785.32 3136.7C2768.71 3146.2 2748.58 3152.43 2735.93 3167.11C2723.27 3181.79 2706.27 3191.17 2690.39 3202C2687.73 3203.84 2683.42 3204.92 2682.55 3207.42C2678.19 3218.15 2671.22 3227.63 2662.25 3234.96C2653.64 3242.48 2641.09 3248.04 2637.02 3257.37C2631.86 3269.16 2619.72 3271.27 2613.67 3281.77C2607.63 3292.27 2594.64 3298.13 2584.26 3305.55C2582.03 3307.09 2575.87 3315.13 2575.81 3304.67C2575.77 3297.74 2577.81 3289.87 2568.76 3297.76C2553.95 3310.7 2542.43 3327.38 2527.6 3340.28C2517.79 3348.81 2516.12 3367.94 2504.05 3367.97C2488 3368.1 2481.66 3380.01 2470.35 3384.9C2455.75 3391.24 2441.26 3399.78 2423.78 3390.77C2412.23 3384.94 2401.25 3391.69 2392.52 3399.68C2380.73 3411.11 2369.81 3423.45 2358.17 3435.09C2352.61 3440.7 2347 3439 2340.95 3434.63C2322.37 3421.19 2314.66 3401.38 2309.27 3380.55C2302 3353.52 2298.33 3325.65 2298.34 3297.66C2298.7 3250.13 2299.68 3202.56 2299.57 3154.99C2299.54 3138.43 2305.77 3123.24 2307.03 3106.74C2310.67 3059.55 2310.65 3011.72 2324.19 2965.68C2326.31 2959.52 2327.21 2953.01 2326.84 2946.5C2322.05 2907.09 2331.68 2869.31 2339.66 2831.53C2341.56 2822.37 2341.52 2815.88 2335.41 2809.15C2333.92 2807.26 2332.91 2805.03 2332.49 2802.66C2332.07 2800.29 2332.25 2797.85 2333 2795.56C2336.59 2771.32 2337.1 2746.47 2347.99 2723.64C2356.65 2705.64 2353.67 2684.73 2359.07 2666.32C2363.35 2652.16 2356.61 2635.24 2367.9 2624.09C2380.18 2612.07 2369.05 2599.06 2371.72 2586.52C2374.65 2572.41 2374.28 2557.29 2379.36 2543.28C2380.95 2538.57 2381.14 2533.49 2379.9 2528.67C2369.61 2491.47 2384.01 2453.81 2378.08 2416.52C2377.82 2414.09 2378.09 2411.63 2378.85 2409.31C2379.62 2406.99 2380.88 2404.86 2382.54 2403.07C2393.16 2393.71 2394.69 2384.55 2385.62 2373.41C2377.74 2363.65 2378.14 2352.12 2379.57 2340.43C2381 2328.75 2381.85 2317.6 2383.22 2306.28C2384.25 2298.6 2380.39 2295.12 2373.92 2291.62C2370.93 2289.94 2368.02 2281.13 2369.52 2279.27C2385.72 2259.55 2375.57 2239.15 2372.2 2218.95C2371.4 2214.12 2369.98 2209.41 2369.48 2204.56C2368.59 2195.56 2377.13 2190.24 2389.54 2191.8C2392.58 2192.17 2395.72 2192.41 2398.84 2192.72C2398.64 2189.76 2399.57 2185.89 2398 2184.07C2392.72 2177.89 2386.12 2173.27 2384.33 2164.26C2380.34 2141.69 2380.85 2118.12 2364.74 2099.18C2364.04 2097.79 2363.69 2096.25 2363.72 2094.69C2363.75 2093.14 2364.16 2091.62 2364.91 2090.26C2379.58 2073.81 2370.4 2059.13 2361.79 2045.2C2356.11 2035.96 2350.55 2028.91 2365.73 2024.58C2367.04 2024.18 2368.9 2021.75 2368.66 2020.84C2364.7 2007.5 2368.11 1990.79 2352.29 1982.72C2345.16 1979.09 2336.17 1977.7 2334.52 1967.89C2330.94 1947.19 2315.27 1939.97 2298.2 1932.39C2278.8 1923.81 2260.96 1912.07 2238.15 1920.66C2231.43 1923.21 2225.48 1917.89 2221.38 1912.68C2211.95 1900.58 2199.98 1898.64 2186.09 1902.35C2168.85 1906.9 2151.72 1913.72 2133.58 1906.05C2132.8 1905.83 2131.97 1905.78 2131.17 1905.92C2130.37 1906.06 2129.61 1906.37 2128.94 1906.84C2121.8 1912.72 2114.77 1927.57 2105.65 1907.66C2089.03 1909.26 2071.61 1913.36 2062.71 1927.16C2054.55 1939.82 2043.53 1943.94 2031.73 1949.3C2021.21 1953.77 2011.05 1959.03 2001.32 1965.03C1991.75 1971.28 1982.91 1978.58 1974.94 1986.78C1967.63 1995.11 1960.83 2003.88 1954.58 2013.04C1941.61 2006.16 1939.02 2020.29 1931.91 2024.75C1922.2 2030.82 1913.33 2038.14 1905.56 2046.54C1898.04 2055.18 1891.53 2064.64 1886.15 2074.74C1881.95 2081.78 1875.88 2087.53 1868.62 2091.33C1864.2 2093.51 1860.47 2096.87 1857.85 2101.04C1836.39 2145.52 1796.95 2177.87 1777.13 2223.63C1773.76 2231.21 1767.95 2237.44 1760.62 2241.34C1722.42 2263.02 1696.16 2296.96 1673.63 2333.01C1659.31 2355.55 1641.26 2374.33 1623.55 2393.32C1614.2 2403.44 1598.55 2407.72 1585.71 2414.62C1570.57 2407.16 1567.86 2391.94 1563.93 2378.01C1557.31 2354.28 1551.99 2330.24 1545.8 2306.41C1541.95 2291.66 1548.64 2277.24 1547.16 2263.07C1545.86 2250.37 1538.49 2238.49 1535.5 2225.81C1533.15 2216.18 1532.35 2206.24 1533.15 2196.36C1534.85 2176.9 1525.65 2157.23 1535.68 2138.03C1532.36 2120.83 1518 2107.07 1521.47 2087.53C1522.02 2083.38 1521.48 2079.17 1519.91 2075.29C1518.35 2071.41 1515.81 2068.01 1512.53 2065.4C1495.15 2050.94 1497.78 2033.56 1505.98 2016.2C1512.82 2001.8 1516.51 1988.81 1503.63 1975.55C1500.93 1972.73 1501.13 1966.7 1500.67 1962.08C1497.07 1926.6 1489.36 1891.48 1491.4 1855.46C1491.48 1853.08 1491.07 1850.72 1490.18 1848.52C1489.29 1846.32 1487.95 1844.33 1486.25 1842.68C1469.5 1830.51 1471.06 1810.57 1464.81 1794.18C1464 1792.02 1463.67 1789.7 1463.85 1787.39C1464.03 1785.08 1464.71 1782.84 1465.84 1780.82C1479.43 1765.56 1473.91 1751.14 1466.94 1735.26C1461.09 1721.83 1459.74 1706.49 1453.85 1693.09C1447.96 1679.69 1460.27 1667.27 1453.93 1654.68C1452.18 1652.21 1450.07 1650.02 1447.67 1648.18C1445.91 1650.22 1444.12 1652.21 1442.48 1654.42C1441.49 1655.73 1440.41 1658.57 1440.09 1658.47C1437.27 1657.61 1434.59 1656.35 1432.13 1654.73C1431.5 1654.22 1431 1653.57 1430.69 1652.82C1430.37 1652.08 1430.25 1651.27 1430.33 1650.46C1440.64 1614.05 1417.98 1584.5 1410.14 1551.87C1409.42 1549.62 1408.2 1547.55 1406.57 1545.84C1404.94 1544.13 1402.94 1542.81 1400.72 1541.98C1391.41 1536.82 1392.85 1527.54 1395.96 1520.4C1403.01 1504.39 1394.83 1511.62 1386.72 1512.15C1376.43 1512.92 1369.41 1503.66 1362.5 1497.22C1357.47 1492.59 1362.31 1489.25 1366.32 1486.61C1372.54 1482.32 1368.38 1478.42 1365.74 1474.86C1359.11 1466.08 1343.53 1468.54 1340.6 1454.93C1336.52 1454.7 1332.59 1453.28 1329.3 1450.85C1326.01 1448.43 1323.49 1445.1 1322.06 1441.27C1311.9 1416.64 1290.27 1408.21 1266.79 1407.77C1260.32 1408.12 1253.84 1407.07 1247.81 1404.67C1241.79 1402.27 1236.35 1398.59 1231.9 1393.87C1227.42 1389.05 1222.58 1384.59 1217.42 1380.51C1216.28 1380.06 1215.04 1379.89 1213.82 1380.02C1212.6 1380.14 1211.42 1380.56 1210.4 1381.24C1205.29 1385.4 1209.33 1379.7 1211.07 1385.71C1213.35 1393.5 1212.54 1399.76 1205.01 1401.04C1192.02 1403.22 1179.22 1403.83 1168.61 1413.49C1166.57 1414.61 1164.28 1415.18 1161.95 1415.15C1159.63 1415.13 1157.35 1414.51 1155.34 1413.34C1141.01 1398.99 1119.63 1413.24 1104.92 1400.16C1102.18 1397.75 1094.88 1398.55 1090.5 1400.18C1061.38 1410.71 1030.01 1415.97 1004.83 1436.06C999.945 1440.38 994.445 1443.94 988.511 1446.62C943.683 1464.2 906.918 1495.39 870.481 1525.41C824.863 1563.21 774.906 1594.45 726.949 1628.68C707.219 1642.73 683.635 1651.48 661.305 1661.95C655.258 1664.44 648.75 1665.6 642.215 1665.37C612.236 1665.49 579.827 1643.74 569.662 1615.25C559.03 1584.62 549.984 1552.89 540.21 1521.66C532.887 1498.3 526.913 1474.32 517.695 1451.7C507.62 1427.01 499.667 1402.18 499.775 1375.47C499.802 1358.17 493.55 1344.89 482.981 1330.86C470.505 1314.15 460.022 1295.56 460.005 1272.79C459.885 1263.45 454.52 1254.11 451.639 1244.71C449.289 1236.9 446.751 1229.09 444.949 1221.16C440.83 1202.99 454.081 1183.22 435.871 1165.72C421.829 1152.25 422.64 1128.84 407.386 1114.62C403.169 1109.61 400.29 1103.6 399.016 1097.17C392.755 1075.17 380.566 1056.49 367.216 1038.43C357.955 1025.83 357.832 1014.46 368.688 1003.05C370.962 1000.66 372.459 997.599 374.733 995.207C377.753 992.289 379.588 988.358 379.887 984.169C380.185 979.98 378.926 975.829 376.35 972.512C363.636 957.745 355.187 939.792 351.912 920.583C350.746 913.667 341.771 908.088 336.355 901.889C333.488 906.905 328.076 908.234 325.384 904.333C320.725 896.295 316.964 887.769 314.171 878.909C313.416 876.898 315.333 872.98 317.24 871.158C320.285 868.234 322.474 869.572 323.8 872.961C327.384 879.348 331.593 885.999 335.444 892.772Z" fill="white"/>
<path d="M1496 2534.99C1491.14 2539.31 1486.53 2543.9 1482.21 2548.75C1480.66 2550.64 1481.46 2554.45 1481.15 2557.39C1485.92 2557.68 1490.72 2557.47 1495.45 2556.76C1500.32 2555.55 1504.65 2551.74 1502.9 2546.18C1500.66 2542.04 1497.75 2538.29 1494.3 2535.09L1496 2534.99Z" fill="white"/>
</svg>
