<svg width="24" height="24" viewBox="0 0 24 24" fill="none" xmlns="http://www.w3.org/2000/svg">
<path fill-rule="evenodd" clip-rule="evenodd" d="M18.7824 16.1068L13.7896 6.10359C13.053 4.62783 10.9472 4.62781 10.2106 6.10358L5.21766 16.1068C4.55395 17.4366 5.52098 19 7.00713 19H16.9929C18.4791 19 19.4461 17.4366 18.7824 16.1068ZM15.5791 5.21043C14.1059 2.25889 9.89435 2.25888 8.42115 5.2104L3.42819 15.2136C2.10077 17.8731 4.03481 21 7.00713 21H16.9929C19.9652 21 21.8993 17.8731 20.5719 15.2137L15.5791 5.21043Z" fill="#242C33"/>
<path d="M13 8C13 7.44772 12.5523 7 12 7C11.4477 7 11 7.44772 11 8V12C11 12.5523 11.4477 13 12 13C12.5523 13 13 12.5523 13 12V8Z" fill="#F18F29"/>
<path d="M12 15C11.4477 15 11 15.4477 11 16C11 16.5523 11.4477 17 12 17C12.5523 17 13 16.5523 13 16C13 15.4477 12.5523 15 12 15Z" fill="#F18F29"/>
</svg>
