<svg width="319" height="239" viewBox="0 0 319 239" fill="none" xmlns="http://www.w3.org/2000/svg">
<g clip-path="url(#clip0_5508_996)">
<path fill-rule="evenodd" clip-rule="evenodd" d="M78.699 64.8179L103.144 52.7173C109.136 49.7507 113.971 47.3577 118.038 45.6786C122.22 43.952 126.085 42.7631 130.167 42.4894C139.978 41.8315 149.649 45.098 157.052 51.5704C160.131 54.2631 162.484 57.5523 164.763 61.4611C166.979 65.2624 169.372 70.0965 172.338 76.0893L172.572 76.5614C175.538 82.5541 177.931 87.3882 179.611 91.4553C181.337 95.6374 182.526 99.5027 182.8 103.584C183.458 113.396 180.191 123.066 173.719 130.469C171.026 133.549 167.737 135.902 163.828 138.18C160.027 140.396 155.193 142.789 149.2 145.756L131.875 154.332C128.821 155.844 128.227 156.176 127.78 156.522C126.738 157.328 125.929 158.397 125.437 159.619C125.226 160.144 125.068 160.806 124.445 164.156L124.397 164.418C123.028 171.778 121.938 177.643 120.843 182.035C119.815 186.163 118.473 190.467 115.826 193.49C108.541 201.81 96.2503 203.516 86.975 197.494C83.6041 195.306 81.1408 191.53 79.027 187.838C76.7783 183.911 74.1318 178.564 70.8108 171.855L54.0091 137.914C50.4437 130.712 47.5679 124.902 45.6236 120.008C43.6216 114.968 42.3517 110.3 42.4087 105.371C42.4994 97.5418 45.0664 89.9422 49.7416 83.6616C52.685 79.7075 56.5255 76.7654 61.1733 73.9719C65.6873 71.2589 71.4966 68.3832 78.699 64.8179ZM68.8132 86.6832C64.9541 89.0026 62.9468 90.759 61.638 92.5171C58.8329 96.2855 57.2927 100.845 57.2383 105.543C57.2129 107.734 57.7442 110.348 59.4064 114.533C61.1007 118.798 63.702 124.066 67.4411 131.619L83.9837 165.037C87.4495 172.038 89.8987 176.979 91.8973 180.469C92.8861 182.196 93.6558 183.373 94.269 184.167C94.7887 184.841 95.0579 185.056 95.074 185.071C98.1553 187.055 102.225 186.49 104.649 183.742C104.661 183.723 104.861 183.443 105.178 182.653C105.552 181.722 105.972 180.38 106.453 178.449C107.425 174.546 108.437 169.126 109.865 161.445C109.897 161.269 109.93 161.094 109.962 160.921C110.431 158.387 110.843 156.16 111.679 154.083C113.154 150.417 115.58 147.209 118.706 144.791C120.477 143.422 122.507 142.418 124.818 141.277C124.976 141.199 125.135 141.12 125.296 141.041L142.384 132.581C148.668 129.471 153.046 127.299 156.359 125.368C159.614 123.47 161.363 122.069 162.554 120.708C166.437 116.266 168.397 110.463 168.002 104.577C167.881 102.772 167.34 100.597 165.902 97.1147C164.439 93.5705 162.274 89.1886 159.164 82.9048C156.053 76.6209 153.881 72.2426 151.95 68.93C150.053 65.675 148.652 63.926 147.29 62.7353C142.848 58.8519 137.046 56.892 131.159 57.2867C129.354 57.4078 127.18 57.9491 123.697 59.3868C120.153 60.8501 115.771 63.0147 109.487 66.1253L85.5629 77.9683C78.0095 81.7074 72.7467 84.3191 68.8132 86.6832Z" fill="url(#paint0_linear_5508_996)"/>
<path d="M76.1929 99.1539C72.5226 100.971 71.0202 105.419 72.837 109.089C74.6539 112.759 79.1021 114.262 82.7723 112.445L135.937 86.1274C139.607 84.3105 141.11 79.8623 139.293 76.192C137.476 72.5218 133.028 71.0193 129.358 72.8362L76.1929 99.1539Z" fill="url(#paint1_linear_5508_996)"/>
<path d="M89.3518 125.736C85.6815 127.553 84.179 132.001 85.9959 135.672C87.8127 139.342 92.2609 140.844 95.9312 139.028L115.868 129.158C119.538 127.342 121.041 122.893 119.224 119.223C117.407 115.553 112.959 114.05 109.289 115.867L89.3518 125.736Z" fill="url(#paint2_linear_5508_996)"/>
</g>
<g opacity="0.1" clip-path="url(#clip1_5508_996)">
<path fill-rule="evenodd" clip-rule="evenodd" d="M266.06 110.839L278.566 118.169C281.632 119.966 284.105 121.416 286.038 122.733C288.025 124.087 289.68 125.457 290.993 127.191C294.147 131.358 295.516 136.607 294.8 141.783C294.503 143.937 293.728 145.942 292.656 148.094C291.613 150.187 290.164 152.661 288.367 155.726L288.225 155.968C286.428 159.034 284.979 161.507 283.662 163.439C282.308 165.426 280.937 167.082 279.204 168.394C275.037 171.548 269.788 172.918 264.611 172.202C262.457 171.904 260.453 171.129 258.3 170.058C256.207 169.015 253.734 167.566 250.668 165.769L241.804 160.574C240.242 159.658 239.921 159.491 239.637 159.393C238.975 159.165 238.264 159.118 237.578 159.256C237.283 159.315 236.943 159.438 235.273 160.139L235.142 160.193C231.473 161.732 228.55 162.959 226.28 163.754C224.146 164.501 221.842 165.16 219.727 164.866C213.905 164.057 209.563 159.094 209.532 153.217C209.521 151.081 210.48 148.885 211.504 146.869C212.592 144.725 214.196 141.989 216.207 138.557L226.385 121.192C228.545 117.508 230.287 114.535 231.894 112.244C233.549 109.885 235.252 107.959 237.458 106.546C240.963 104.303 245.088 103.226 249.242 103.471C251.857 103.626 254.284 104.474 256.881 105.723C259.403 106.937 262.375 108.679 266.06 110.839ZM253.463 112.825C251.307 111.788 249.941 111.408 248.778 111.34C246.286 111.193 243.811 111.838 241.708 113.184C240.727 113.812 239.721 114.811 238.347 116.77C236.946 118.767 235.365 121.459 233.1 125.323L223.079 142.42C220.98 146.002 219.499 148.531 218.531 150.438C218.053 151.381 217.754 152.066 217.58 152.57C217.433 152.997 217.416 153.18 217.414 153.191C217.431 155.139 218.869 156.782 220.797 157.057C220.809 157.057 220.992 157.064 221.435 156.975C221.958 156.869 222.677 156.664 223.675 156.315C225.692 155.608 228.395 154.476 232.224 152.87C232.312 152.834 232.399 152.797 232.485 152.761C233.748 152.23 234.858 151.763 236.024 151.529C238.083 151.115 240.215 151.257 242.202 151.94C243.326 152.327 244.364 152.937 245.546 153.63C245.626 153.678 245.708 153.726 245.79 153.774L254.533 158.898C257.748 160.782 259.99 162.094 261.814 163.002C263.606 163.895 264.739 164.263 265.691 164.395C268.797 164.824 271.946 164.002 274.446 162.11C275.213 161.53 276.021 160.655 277.149 159C278.297 157.316 279.612 155.077 281.496 151.862C283.38 148.647 284.692 146.405 285.6 144.581C286.493 142.788 286.861 141.656 286.993 140.703C287.423 137.597 286.601 134.448 284.708 131.948C284.128 131.181 283.253 130.373 281.599 129.245C279.915 128.098 277.675 126.783 274.46 124.898L262.22 117.724C258.356 115.459 255.66 113.883 253.463 112.825Z" fill="#1D1D1D"/>
<path d="M250.075 119.742C248.197 118.641 245.783 119.271 244.682 121.149C243.582 123.027 244.212 125.441 246.089 126.542L273.289 142.484C275.167 143.584 277.581 142.954 278.682 141.076C279.782 139.199 279.152 136.784 277.275 135.684L250.075 119.742Z" fill="#1D1D1D"/>
<path d="M242.104 133.342C240.226 132.241 237.812 132.871 236.711 134.749C235.611 136.627 236.241 139.041 238.118 140.142L248.318 146.12C250.196 147.22 252.61 146.59 253.711 144.713C254.812 142.835 254.181 140.42 252.304 139.32L242.104 133.342Z" fill="#1D1D1D"/>
</g>
<defs>
<linearGradient id="paint0_linear_5508_996" x1="89.8076" y1="59.319" x2="149.024" y2="178.943" gradientUnits="userSpaceOnUse">
<stop stop-color="#2CBC33"/>
<stop offset="1" stop-color="#1F8724"/>
</linearGradient>
<linearGradient id="paint1_linear_5508_996" x1="102.882" y1="85.9425" x2="122.62" y2="125.816" gradientUnits="userSpaceOnUse">
<stop stop-color="#2CBC33"/>
<stop offset="1" stop-color="#1F8724"/>
</linearGradient>
<linearGradient id="paint2_linear_5508_996" x1="102.882" y1="85.9425" x2="122.62" y2="125.816" gradientUnits="userSpaceOnUse">
<stop stop-color="#2CBC33"/>
<stop offset="1" stop-color="#1F8724"/>
</linearGradient>
<clipPath id="clip0_5508_996">
<rect width="177.967" height="177.967" fill="white" transform="translate(0 78.9531) rotate(-26.3364)"/>
</clipPath>
<clipPath id="clip1_5508_996">
<rect width="94.5818" height="94.5818" fill="white" transform="translate(236.824 80) rotate(30.3748)"/>
</clipPath>
</defs>
</svg>
