<svg width="113" height="19" viewBox="0 0 113 19" fill="none" xmlns="http://www.w3.org/2000/svg">
<g clip-path="url(#clip0_3585_1144)">
<mask id="mask0_3585_1144" style="mask-type:luminance" maskUnits="userSpaceOnUse" x="34" y="1" width="79" height="15">
<path fill-rule="evenodd" clip-rule="evenodd" d="M34.8203 1.2168H112.999V15.3269H34.8203V1.2168Z" fill="white"/>
</mask>
<g mask="url(#mask0_3585_1144)">
<path fill-rule="evenodd" clip-rule="evenodd" d="M56.9034 9.4228V11.6333C56.5065 12.7597 55.5222 13.5571 54.3701 13.5571C52.8682 13.5571 51.6504 12.2012 51.6504 10.5283C51.6504 8.85584 52.8682 7.49951 54.3701 7.49951C55.5222 7.49951 56.5065 8.29688 56.9034 9.4228ZM70.9353 7.81065H73.7527V6.08005H70.9353V2.99268H68.8437V12.0341C68.8437 14.032 69.951 15.7502 73.2683 14.872V13.1481C71.6128 13.6791 70.9353 13.0526 70.9353 12.0341V7.81065ZM34.8203 14.9784C35.0693 10.1418 35.52 5.82553 36.4941 1.21533H38.9958L41.6854 11.3521L44.375 1.21533H46.8763C47.8504 5.82553 48.3015 10.1418 48.5505 14.9784H46.4488C46.3009 11.3206 46.0039 7.91974 45.4032 4.52913L43.024 13.5502H40.3464L37.9676 4.52913C37.3669 7.91974 37.0694 11.3206 36.922 14.9784H34.8203ZM66.2863 8.48282C65.2758 6.95423 62.0566 7.18021 62.3145 8.50724C62.4242 9.06842 63.5763 9.30949 64.4878 9.51194C66.2828 9.91152 68.0422 10.6636 68.0422 12.3427C68.0422 14.1705 66.2592 15.1424 64.6449 15.2987C62.3958 15.5167 60.274 14.3557 59.664 12.0754L61.4657 11.5942C61.8062 12.8675 63.2185 13.5476 64.4487 13.5476C66.7081 13.5476 66.6819 11.9085 64.0385 11.3207C62.1956 10.9105 60.3153 10.2454 60.3153 8.525C60.3153 6.59594 62.4735 5.75684 64.1033 5.75684C65.405 5.75684 66.7938 6.22079 67.699 7.30008L66.2863 8.48282ZM76.0019 9.35083H80.7515C80.3919 8.18053 79.464 7.46484 78.3763 7.46484C77.2886 7.46484 76.3611 8.18053 76.0019 9.35083ZM78.375 5.7793C80.8719 5.7793 82.8959 7.90592 82.8959 10.5289C82.8959 10.7087 82.8857 10.8854 82.8675 11.0603H75.8923C76.4033 14.1144 79.8667 14.3426 81.0015 11.6894L82.7725 12.6573C81.964 14.2116 80.2987 15.2785 78.375 15.2785C75.8785 15.2785 73.8545 13.1519 73.8545 10.5289C73.8545 7.90592 75.8785 5.7793 78.375 5.7793ZM84.1582 14.9792H86.2497V9.96857C86.2497 8.09279 87.5608 7.23282 89.2088 8.15184L90.1531 6.20858C88.9508 5.51776 87.2327 5.59945 86.2497 6.81638V6.07761H84.1582V14.9792ZM105.048 1.69727C105.764 1.69727 106.343 2.27665 106.343 2.99189C106.343 3.70668 105.764 4.2865 105.048 4.2865C104.334 4.2865 103.754 3.70668 103.754 2.99189C103.754 2.27665 104.334 1.69727 105.048 1.69727ZM110.18 12.0341V7.81065H112.999V6.08005H110.18V2.99268H108.089V12.0341C108.089 14.032 109.197 15.7502 112.514 14.872V13.1481C110.858 13.6791 110.18 13.0526 110.18 12.0341ZM104.003 14.9783H106.094V6.07715H104.003V14.9783ZM93.083 14.9786H95.1745V10.0274C95.8498 9.32416 96.5033 8.61514 97.1426 7.89502L100.905 14.9786H103.274L98.6091 6.19683C99.9357 4.61718 101.22 2.97227 102.53 1.21548H99.9214C98.38 3.27595 96.8301 5.19346 95.1745 7.01063V1.21548H93.083V14.9786ZM56.9036 14.9797H58.9952V6.07809H56.9036V7.17292C56.1249 6.31206 55.0487 5.7793 53.8598 5.7793C51.4841 5.7793 49.5586 7.90592 49.5586 10.5289C49.5586 13.1519 51.4841 15.2785 53.8598 15.2785C55.0487 15.2785 56.1249 14.7457 56.9036 13.8849V14.9797Z" fill="white"/>
</g>
<g clip-path="url(#clip1_3585_1144)">
<path d="M27.287 14.2859C27.3203 14.2043 27.3367 14.1577 27.3367 14.1577L27.287 14.2859Z" fill="white"/>
<path d="M6.4705 10.047C5.49398 10.1669 5.05227 9.78171 4.7886 9.49861C4.68709 9.39597 4.60407 9.27628 4.54329 9.1449C4.27146 9.86739 4.47533 10.6763 4.95645 11.0642C5.90783 11.8347 8.7436 10.6091 10.8482 9.30599C10.4765 9.08184 10.0782 8.85837 9.67051 8.65479C8.84146 9.21345 7.42391 9.93046 6.4705 10.047Z" fill="white"/>
<path d="M10.8477 9.30797L10.8654 9.31825C11.6212 9.77838 12.3502 10.2819 13.0488 10.8263L13.1106 10.8757C9.45803 7.19121 6.49382 4.7749 3.69882 4.7749C0.903816 4.7749 0.00680542 8.07548 0.00680542 9.46974C0.00680542 12.9883 2.03391 14.0734 3.26866 14.0734C4.50341 14.0734 5.89649 13.1713 6.74594 12.5544C7.49344 12.006 10.2273 9.80905 10.8477 9.30797C8.7411 10.6104 5.89717 11.8052 4.94512 11.0347C4.46264 10.644 4.29207 9.8447 4.54758 9.13728C4.80785 8.41616 5.51051 7.79032 6.77991 7.79032C7.6511 7.79032 8.68266 8.16116 9.65103 8.6458" fill="white"/>
<path d="M11.332 7.49854L11.3536 7.5196L11.332 7.49854Z" fill="white"/>
<path d="M13.1278 7.69625C14.2919 6.8394 16.3985 5.57127 18.0885 5.21139C19.7786 4.85151 20.7986 5.21139 21.665 5.75977C22.5314 6.30816 23.0493 7.26782 23.2701 7.77371C23.5097 8.34126 23.6625 8.94217 23.7234 9.55595C23.7653 9.92016 23.7683 10.2879 23.7322 10.6527C23.831 10.2389 23.8933 9.81703 23.9184 9.39212C24.0999 6.66186 22.1176 3.87402 19.1731 3.87402C16.2286 3.87402 12.7513 6.58166 12.5814 6.68448C12.4455 6.76811 11.6505 7.31718 11.3582 7.52214C11.5669 7.72778 11.8604 8.01294 12.2043 8.35156C12.4075 8.2131 12.7051 8.00745 13.1278 7.69625Z" fill="white"/>
<path d="M26.9314 14.9415C26.3973 15.8326 25.3113 17.1809 23.5758 17.1809C20.8575 17.1809 17.3014 13.3992 17.0976 13.1935C16.9657 13.0605 14.5404 10.6572 12.7912 8.93257L12.1987 8.34854C11.8548 8.00992 11.5613 7.7227 11.3526 7.51912L11.3316 7.49855L11.023 7.20242L11.0156 7.19557C10.8117 7.0242 7.10814 3.28834 3.95977 3.35689C0.811397 3.42544 0.127086 7.02351 0.0747608 7.44714C0.00680542 7.99552 0.00680542 8.681 0.00680542 9.4693C0.00680542 8.07504 0.904495 4.77377 3.69882 4.77377C6.49314 4.77377 9.45804 7.19009 13.1106 10.8745L13.0488 10.8252C13.7351 11.5107 14.9604 12.7575 15.2064 12.9879C15.523 13.2847 17.2111 14.9189 18.5926 16.1068C19.9741 17.2947 21.9679 18.3915 23.5309 18.2092C25.0939 18.0268 25.9943 16.7409 26.4639 16.0382C26.911 15.3699 27.4479 13.9763 27.5824 13.6308C27.5192 13.7864 27.1298 14.609 26.9314 14.9415Z" fill="white"/>
<path d="M25.9311 2.58046C24.5265 1.04911 23.2129 0.558303 21.9102 0.512376C20.6075 0.466449 19.7927 0.706367 18.524 1.22047C17.2553 1.73458 15.3756 3.23167 14.7864 3.68819C14.1973 4.14472 12.5439 5.69939 12.2497 5.9962C12.0037 6.24434 11.2609 6.96889 11.0224 7.20264C11.0571 7.23349 11.1658 7.33974 11.3309 7.49877L11.352 7.51933C11.6469 7.31369 12.4393 6.76531 12.5752 6.68168C12.7451 6.57886 16.2223 3.87122 19.1668 3.87122C22.1114 3.87122 24.0936 6.65906 23.9122 9.38931C23.8881 9.81484 23.8267 10.2374 23.7287 10.652C23.2829 12.4609 22.1487 13.2074 20.5626 13.2074C18.6483 13.2074 15.1942 10.6136 14.8089 10.3394C14.4793 10.105 13.163 9.19258 12.7906 8.93484C14.5398 10.6595 16.9651 13.0628 17.0969 13.1958C17.3008 13.4014 20.8569 17.1832 23.5751 17.1832C25.3107 17.1832 26.3613 15.9493 26.8968 15.0582C26.9878 14.8766 27.1142 14.6271 27.2861 14.285C27.8712 13.2273 28.2416 11.2319 28.2416 9.09593C28.2416 6.95998 27.3358 4.11113 25.9311 2.58046Z" fill="white"/>
</g>
</g>
<defs>
<clipPath id="clip0_3585_1144">
<rect width="113" height="18" fill="white" transform="translate(0 0.5)"/>
</clipPath>
<clipPath id="clip1_3585_1144">
<rect width="28.25" height="17.7571" fill="white" transform="translate(0 0.5)"/>
</clipPath>
</defs>
</svg>
