<svg width="144" height="23" viewBox="0 0 144 23" fill="none" xmlns="http://www.w3.org/2000/svg">
<g clip-path="url(#clip0_3586_6295)">
<mask id="mask0_3586_6295" style="mask-type:alpha" maskUnits="userSpaceOnUse" x="43" y="0" width="101" height="20">
<path d="M43.9844 0.921875H143.255V19.0079H43.9844V0.921875Z" fill="white"/>
</mask>
<g mask="url(#mask0_3586_6295)">
<path fill-rule="evenodd" clip-rule="evenodd" d="M72.0259 11.4412V14.2746C71.5219 15.7184 70.272 16.7404 68.8091 16.7404C66.9019 16.7404 65.3556 15.0025 65.3556 12.8582C65.3556 10.7145 66.9019 8.97598 68.8091 8.97598C70.272 8.97598 71.5219 9.99804 72.0259 11.4412ZM89.8426 9.37433H93.4202V7.15608H89.8426V3.19874H87.1868V14.7879C87.1868 17.3488 88.5928 19.5511 92.8051 18.4255V16.2157C90.7029 16.8964 89.8426 16.0934 89.8426 14.7879V9.37433ZM43.9844 18.5632C44.3006 12.3637 44.8728 6.83114 46.1097 0.921875H49.2864L52.7016 13.915L56.1168 0.921875H59.293C60.5299 6.83114 61.1026 12.3637 61.4189 18.5632H58.7501C58.5624 13.8746 58.1852 9.51546 57.4225 5.16944L54.4013 16.7325H51.0014L47.9808 5.16944C47.218 9.51546 46.8403 13.8746 46.6532 18.5632H43.9844ZM83.9401 10.2382C82.657 8.27886 78.5693 8.56852 78.8968 10.2695C79.0361 10.9888 80.499 11.2978 81.6564 11.5573C83.9356 12.0695 86.1698 13.0335 86.1698 15.1857C86.1698 17.5286 83.9058 18.7743 81.856 18.9746C79 19.254 76.3058 17.7659 75.5312 14.8431L77.8189 14.2263C78.2513 15.8584 80.0446 16.7302 81.6068 16.7302C84.4757 16.7302 84.4424 14.6292 81.0859 13.8757C78.7457 13.3499 76.3583 12.4974 76.3583 10.2922C76.3583 7.81962 79.0987 6.74407 81.1682 6.74407C82.8211 6.74407 84.5845 7.33875 85.734 8.72217L83.9401 10.2382ZM96.2755 11.3502H102.307C101.85 9.85008 100.672 8.93273 99.2905 8.93273C97.9093 8.93273 96.7316 9.85008 96.2755 11.3502ZM99.2905 6.77025C102.461 6.77025 105.031 9.49611 105.031 12.8582C105.031 13.0887 105.018 13.3152 104.995 13.5394H96.138C96.7869 17.454 101.185 17.7465 102.626 14.3458L104.874 15.5863C103.848 17.5787 101.733 18.9462 99.2905 18.9462C96.1205 18.9462 93.5504 16.2203 93.5504 12.8582C93.5504 9.49611 96.1205 6.77025 99.2905 6.77025ZM106.634 18.5632H109.29V12.1406C109.29 9.73626 110.954 8.63397 113.047 9.81195L114.246 7.32111C112.72 6.43563 110.538 6.54034 109.29 8.10017V7.15323H106.634V18.5632ZM133.161 1.53932C134.069 1.53932 134.804 2.28196 134.804 3.19874C134.804 4.11495 134.069 4.85816 133.161 4.85816C132.253 4.85816 131.517 4.11495 131.517 3.19874C131.517 2.28196 132.253 1.53932 133.161 1.53932ZM139.677 14.7879V9.37433H143.256V7.15608H139.677V3.19874H137.021V14.7879C137.021 17.3488 138.428 19.5511 142.641 18.4255V16.2157C140.538 16.8964 139.677 16.0934 139.677 14.7879ZM131.833 18.5632H134.489V7.1538H131.833V18.5632ZM117.965 18.5632H120.621V12.2169C121.479 11.3154 122.308 10.4066 123.12 9.48359L127.898 18.5632H130.906L124.982 7.30688C126.667 5.28212 128.298 3.1737 129.961 0.921875H126.649C124.691 3.56295 122.723 6.02078 120.621 8.35V0.921875H117.965V18.5632ZM72.0259 18.5632H74.6817V7.15323H72.0259V8.55657C71.037 7.45314 69.6705 6.77025 68.1608 6.77025C65.1442 6.77025 62.6992 9.49611 62.6992 12.8582C62.6992 16.2203 65.1442 18.9462 68.1608 18.9462C69.6705 18.9462 71.037 18.2633 72.0259 17.1598V18.5632Z" fill="black"/>
</g>
<path d="M35.6641 17.8812C35.7076 17.7753 35.7289 17.7148 35.7289 17.7148L35.6641 17.8812Z" fill="#6D6E6E"/>
<path d="M8.45179 12.38C7.17521 12.5357 6.59778 12.0358 6.25309 11.6683C6.12038 11.5351 6.01186 11.3798 5.93239 11.2093C5.57705 12.147 5.84356 13.1967 6.47252 13.7002C7.71622 14.7001 11.4234 13.1095 14.1746 11.4184C13.6887 11.1275 13.1681 10.8375 12.6351 10.5732C11.5513 11.2983 9.69816 12.2288 8.45179 12.38Z" fill="url(#paint0_linear_3586_6295)"/>
<path d="M14.172 11.422L14.1951 11.4354C15.1832 12.0325 16.1362 12.686 17.0494 13.3925L17.1303 13.4565C12.3553 8.67492 8.48029 5.53906 4.82646 5.53906C1.17264 5.53906 0 9.82251 0 11.632C0 16.1983 2.64998 17.6066 4.26413 17.6066C5.87828 17.6066 7.69942 16.4358 8.80987 15.6352C9.78707 14.9235 13.3609 12.0723 14.172 11.422C11.4181 13.1123 7.70031 14.6628 6.45572 13.6629C5.82498 13.1559 5.602 12.1186 5.93603 11.2005C6.27627 10.2646 7.19483 9.45243 8.85429 9.45243C9.99317 9.45243 11.3417 9.93371 12.6076 10.5627" fill="url(#paint1_linear_3586_6295)"/>
<path d="M14.8047 9.07422L14.833 9.10091L14.8047 9.07422Z" fill="#49494A"/>
<path d="M17.157 9.32958C18.6788 8.21757 21.4327 6.5718 23.6421 6.10476C25.8514 5.63772 27.1849 6.10476 28.3175 6.81644C29.4502 7.52813 30.1271 8.77357 30.4158 9.4301C30.729 10.1667 30.9288 10.9465 31.0084 11.7431C31.0632 12.2157 31.0671 12.6929 31.0199 13.1664C31.1491 12.6294 31.2305 12.0819 31.2633 11.5305C31.5005 7.98716 28.9092 4.36914 25.0599 4.36914C21.2106 4.36914 16.6649 7.88308 16.4428 8.01652C16.2651 8.12505 15.2257 8.83763 14.8438 9.10362C15.1165 9.3705 15.5002 9.74057 15.9498 10.18C16.2154 10.0003 16.6045 9.73346 17.157 9.32958Z" fill="url(#paint2_linear_3586_6295)"/>
<path d="M35.1977 18.7328C34.4995 19.8893 33.0799 21.6391 30.811 21.6391C27.2576 21.6391 22.6088 16.7312 22.3423 16.4643C22.1699 16.2917 18.9994 13.1728 16.7127 10.9345L15.9381 10.1766C15.4886 9.73711 15.1048 9.36437 14.8321 9.10015L14.8045 9.07347L14.4012 8.68916L14.3914 8.68026C14.1249 8.45786 9.28337 3.60951 5.16759 3.69847C1.05182 3.78744 0.15724 8.45697 0.0888361 9.00675C0 9.71843 0 10.608 0 11.6311C0 9.82162 1.17352 5.53729 4.82646 5.53729C8.4794 5.53729 12.3553 8.67314 17.1303 13.4548L17.0494 13.3907C17.9467 14.2803 19.5484 15.8985 19.87 16.1974C20.2839 16.5826 22.4906 18.7034 24.2967 20.2451C26.1027 21.7868 28.7092 23.2102 30.7524 22.9735C32.7956 22.7369 33.9727 21.068 34.5866 20.1562C35.1711 19.2888 35.8729 17.4802 36.0488 17.0319C35.9662 17.2338 35.4571 18.3013 35.1977 18.7328Z" fill="url(#paint3_linear_3586_6295)"/>
<path d="M33.8882 2.69113C32.0519 0.703751 30.3347 0.0667938 28.6318 0.0071903C26.9288 -0.0524132 25.8636 0.258948 24.2051 0.926152C22.5465 1.59336 20.0893 3.53625 19.3191 4.12873C18.5489 4.7212 16.3875 6.73883 16.0028 7.12403C15.6812 7.44606 14.7103 8.38638 14.3984 8.68973C14.4437 8.72976 14.5859 8.86765 14.8018 9.07404L14.8293 9.10073C15.2148 8.83385 16.2507 8.12216 16.4283 8.01363C16.6504 7.88019 21.1962 4.36625 25.0454 4.36625C28.8947 4.36625 31.4861 7.98427 31.2489 11.5276C31.2174 12.0798 31.1371 12.6282 31.009 13.1662C30.4262 15.5139 28.9436 16.4827 26.8701 16.4827C24.3676 16.4827 19.8521 13.1164 19.3484 12.7606C18.9175 12.4563 17.1968 11.2723 16.71 10.9378C18.9966 13.176 22.1672 16.295 22.3395 16.4675C22.606 16.7344 27.2548 21.6424 30.8082 21.6424C33.0771 21.6424 34.4505 20.0411 35.1505 18.8846C35.2696 18.6489 35.4348 18.325 35.6596 17.8811C36.4245 16.5085 36.9086 13.9188 36.9086 11.1468C36.9086 8.37481 35.7244 4.67761 33.8882 2.69113Z" fill="#7CC144"/>
</g>
<defs>
<linearGradient id="paint0_linear_3586_6295" x1="6.12073" y1="12.3602" x2="11.0338" y2="11.7516" gradientUnits="userSpaceOnUse">
<stop stop-color="#448A40"/>
<stop offset="1" stop-color="#58A745"/>
</linearGradient>
<linearGradient id="paint1_linear_3586_6295" x1="-0.310926" y1="11.5724" x2="13.9179" y2="11.5724" gradientUnits="userSpaceOnUse">
<stop stop-color="#34783B"/>
<stop offset="1" stop-color="#214720"/>
</linearGradient>
<linearGradient id="paint2_linear_3586_6295" x1="16.1248" y1="8.7459" x2="30.9342" y2="8.83757" gradientUnits="userSpaceOnUse">
<stop stop-color="#509E44"/>
<stop offset="1" stop-color="#3D843F"/>
</linearGradient>
<linearGradient id="paint3_linear_3586_6295" x1="0" y1="13.348" x2="36.0488" y2="13.348" gradientUnits="userSpaceOnUse">
<stop stop-color="#4B9A44"/>
<stop offset="0.07" stop-color="#54A445"/>
<stop offset="0.1" stop-color="#5BAB46"/>
<stop offset="0.17" stop-color="#5BAB46"/>
<stop offset="0.6" stop-color="#5BAB46"/>
<stop offset="0.68" stop-color="#56A544"/>
<stop offset="0.81" stop-color="#49933F"/>
<stop offset="0.95" stop-color="#347537"/>
<stop offset="1" stop-color="#2B6934"/>
</linearGradient>
<clipPath id="clip0_3586_6295">
<rect width="144" height="23" fill="white"/>
</clipPath>
</defs>
</svg>
